<svg width="30" height="30" viewBox="0 0 30 30" fill="none" xmlns="http://www.w3.org/2000/svg">
<rect width="30" height="30" rx="15" fill="#7289DA"/>
<path d="M20.5535 9.89806C19.5178 9.41853 18.4104 9.07002 17.2526 8.87158C17.1104 9.12598 16.9443 9.46815 16.8298 9.74034C15.599 9.55718 14.3796 9.55718 13.1714 9.74034C13.0569 9.46815 12.887 9.12598 12.7436 8.87158C11.5845 9.07002 10.4758 9.41981 9.44013 9.9006C7.3511 13.0245 6.78479 16.0709 7.06794 19.0739C8.4535 20.0978 9.79627 20.7198 11.1164 21.1269C11.4423 20.6829 11.733 20.2111 11.9835 19.7137C11.5065 19.5344 11.0497 19.3131 10.618 19.0561C10.7326 18.9722 10.8446 18.8844 10.9528 18.7941C13.5855 20.0126 16.4459 20.0126 19.0472 18.7941C19.1566 18.8844 19.2686 18.9722 19.3819 19.0561C18.949 19.3143 18.4909 19.5356 18.014 19.715C18.2644 20.2111 18.5538 20.6842 18.881 21.1281C20.2024 20.7211 21.5464 20.0991 22.932 19.0739C23.2642 15.5926 22.3644 12.5742 20.5535 9.89806ZM12.3421 17.2271C11.5518 17.2271 10.9037 16.4969 10.9037 15.6079C10.9037 14.7188 11.538 13.9874 12.3421 13.9874C13.1463 13.9874 13.7944 14.7175 13.7805 15.6079C13.7818 16.4969 13.1463 17.2271 12.3421 17.2271ZM17.6578 17.2271C16.8675 17.2271 16.2194 16.4969 16.2194 15.6079C16.2194 14.7188 16.8537 13.9874 17.6578 13.9874C18.462 13.9874 19.1101 14.7175 19.0962 15.6079C19.0962 16.4969 18.462 17.2271 17.6578 17.2271Z" fill="white"/>
</svg>
