<svg width="30" height="30" viewBox="0 0 30 30" fill="none" xmlns="http://www.w3.org/2000/svg">
<rect width="30" height="30" rx="15" fill="white"/>
<g clip-path="url(#clip0_340_23623)">
<path d="M10.5459 16.6689L9.989 18.7481L7.95341 18.7911C7.34506 17.6628 7 16.3718 7 14.9999C7 13.6733 7.32263 12.4223 7.8945 11.3208H7.89494L9.70719 11.6531L10.5011 13.4544C10.3349 13.9388 10.2443 14.4588 10.2443 14.9999C10.2444 15.5872 10.3508 16.1498 10.5459 16.6689Z" fill="#FBBB00"/>
<path d="M22.8604 13.5054C22.9522 13.9893 23.0001 14.4891 23.0001 14.9999C23.0001 15.5726 22.9399 16.1313 22.8252 16.6702C22.4358 18.5041 21.4182 20.1054 20.0085 21.2386L20.0081 21.2381L17.7255 21.1217L17.4024 19.1049C18.3378 18.5564 19.0688 17.6979 19.4538 16.6702H15.176V13.5054H19.5162H22.8604Z" fill="#518EF8"/>
<path d="M20.0081 21.2382L20.0086 21.2386C18.6376 22.3406 16.896 22.9999 15.0002 22.9999C11.9536 22.9999 9.30483 21.2971 7.95361 18.7911L10.5461 16.6689C11.2217 18.472 12.9611 19.7555 15.0002 19.7555C15.8767 19.7555 16.6978 19.5186 17.4024 19.105L20.0081 21.2382Z" fill="#28B446"/>
<path d="M20.1063 8.84175L17.5146 10.9635C16.7854 10.5077 15.9234 10.2444 14.9999 10.2444C12.9146 10.2444 11.1428 11.5868 10.501 13.4545L7.89485 11.3209H7.89441C9.22585 8.75384 11.908 7 14.9999 7C16.941 7 18.7208 7.69144 20.1063 8.84175Z" fill="#F14336"/>
</g>
<defs>
<clipPath id="clip0_340_23623">
<rect width="16" height="16" fill="white" transform="translate(7 7)"/>
</clipPath>
</defs>
</svg>
