<svg width="63" height="57" viewBox="0 0 63 57" fill="none" xmlns="http://www.w3.org/2000/svg">
<g filter="url(#filter0_f_340_28874)">
<path d="M13 27.9834C13 20.2514 19.268 13.9834 27 13.9834H36C43.732 13.9834 50 20.2514 50 27.9834V29.9335C50 37.6655 43.732 43.9335 36 43.9335H27C19.268 43.9335 13 37.6655 13 29.9335V27.9834Z" fill="#5383FF" fill-opacity="0.3"/>
</g>
<path d="M5.5 18C5.5 10.268 11.768 4 19.5 4H41.5C49.232 4 55.5 10.268 55.5 18V40C55.5 47.732 49.232 54 41.5 54H19.5C11.768 54 5.5 47.732 5.5 40V18Z" fill="white" fill-opacity="0.09"/>
<path d="M16.5 21.9133V35.2467C16.5 35.7396 16.5971 36.2276 16.7857 36.683C16.9743 37.1384 17.2508 37.5521 17.5993 37.9007C17.9479 38.2492 18.3616 38.5257 18.817 38.7143C19.2724 38.9029 19.7604 39 20.2533 39H40.7467C41.2396 39 41.7276 38.9029 42.183 38.7143C42.6384 38.5257 43.0521 38.2492 43.4007 37.9007C43.7492 37.5521 44.0257 37.1384 44.2143 36.683C44.4029 36.2276 44.5 35.7396 44.5 35.2467V21.9133C44.5 21.1407 44.1931 20.3997 43.6467 19.8533C43.1004 19.3069 42.3593 19 41.5867 19H19.4133C18.6407 19 17.8997 19.3069 17.3533 19.8533C16.8069 20.3997 16.5 21.1407 16.5 21.9133V21.9133Z" fill="#009DF5"/>
<path d="M41.5867 19H19.4133C18.6407 19 17.8997 19.3069 17.3533 19.8533C16.8069 20.3997 16.5 21.1407 16.5 21.9133V22.58C16.5012 22.9714 16.5955 23.357 16.7752 23.7048C16.9549 24.0525 17.2148 24.3525 17.5333 24.58L28.5733 32.4467C29.1366 32.8456 29.8098 33.0599 30.5 33.0599C31.1902 33.0599 31.8634 32.8456 32.4267 32.4467L43.4667 24.56C43.7849 24.3322 44.0444 24.0321 44.2241 23.6844C44.4037 23.3367 44.4983 22.9513 44.5 22.56V21.8933C44.4947 21.1241 44.1855 20.3883 43.6397 19.8462C43.0939 19.3042 42.3559 19 41.5867 19V19Z" fill="#0C7BBA"/>
<path fill-rule="evenodd" clip-rule="evenodd" d="M42.75 35V28.5C42.75 27.6716 43.4216 27 44.25 27V27V35C44.25 37.0711 42.5711 38.75 40.5 38.75H30.5V38.75C30.5 37.9216 31.1716 37.25 32 37.25H40.5C41.7426 37.25 42.75 36.2426 42.75 35Z" fill="#0C7BBA"/>
<path d="M19.4134 19C18.7683 19.0006 18.1418 19.2158 17.6324 19.6117C17.1231 20.0076 16.7599 20.5617 16.6001 21.1867C16.7509 21.7241 17.0801 22.1943 17.5334 22.52L28.5734 30.4133C29.1367 30.8123 29.8099 31.0265 30.5001 31.0265C31.1903 31.0265 31.8635 30.8123 32.4268 30.4133L43.4668 22.5333C43.9201 22.2077 44.2493 21.7375 44.4001 21.2C44.2428 20.5725 43.8807 20.0154 43.3712 19.617C42.8616 19.2185 42.2336 19.0014 41.5868 19H19.4134Z" fill="#009DF5"/>
<defs>
<filter id="filter0_f_340_28874" x="0" y="0.983398" width="63" height="55.9502" filterUnits="userSpaceOnUse" color-interpolation-filters="sRGB">
<feFlood flood-opacity="0" result="BackgroundImageFix"/>
<feBlend mode="normal" in="SourceGraphic" in2="BackgroundImageFix" result="shape"/>
<feGaussianBlur stdDeviation="6.5" result="effect1_foregroundBlur_340_28874"/>
</filter>
</defs>
</svg>
