<svg width="30" height="30" viewBox="0 0 30 30" fill="none" xmlns="http://www.w3.org/2000/svg">
<g clip-path="url(#clip0_340_23630)">
<path d="M15.0077 30.0155C23.2963 30.0155 30.0155 23.2963 30.0155 15.0077C30.0155 6.7192 23.2963 0 15.0077 0C6.7192 0 0 6.7192 0 15.0077C0 23.2963 6.7192 30.0155 15.0077 30.0155Z" fill="url(#paint0_linear_340_23630)"/>
<path d="M20.734 8.89192C20.734 8.89192 22.2955 8.28467 22.1654 9.75942C22.122 10.3667 21.7316 12.492 21.428 14.7909L20.387 21.6008C20.387 21.6008 20.3003 22.5984 19.5195 22.7719C18.7388 22.9454 17.5676 22.1647 17.3508 21.9912C17.1773 21.861 14.0976 19.9092 13.0133 18.9549C12.7096 18.6947 12.3626 18.1742 13.0566 17.5669L17.611 13.2294C18.1315 12.7089 18.652 11.4944 16.4833 12.9692L10.4108 17.0898C10.4108 17.0898 9.71676 17.5235 8.41551 17.1332L5.59613 16.2657C5.59613 16.2657 4.55513 15.615 6.33351 14.9644C10.671 12.9258 16.0061 10.8438 20.734 8.89192Z" fill="white"/>
</g>
<defs>
<linearGradient id="paint0_linear_340_23630" x1="19.9525" y1="4.77125" x2="12.5787" y2="22.555" gradientUnits="userSpaceOnUse">
<stop stop-color="#2AABEE"/>
<stop offset="1" stop-color="#229ED9"/>
</linearGradient>
<clipPath id="clip0_340_23630">
<rect width="30" height="30" fill="white"/>
</clipPath>
</defs>
</svg>
