<svg width="24" height="24" viewBox="0 0 24 24" fill="none" xmlns="http://www.w3.org/2000/svg">
<path d="M5 6.33333C5 5.04467 6.04467 4 7.33333 4H16.6667C17.9553 4 19 5.04467 19 6.33333V19.1667C19 20.4553 17.9553 21.5 16.6667 21.5H7.33333C6.04467 21.5 5 20.4553 5 19.1667V6.33333Z" fill="url(#paint0_linear_861_10057)"/>
<circle cx="7.33464" cy="6.33366" r="1.16667" fill="#121212"/>
<circle cx="16.6667" cy="19.1667" r="1.16667" fill="#121212"/>
<path d="M8.65299 17.167V8.68214H12.332C12.9783 8.68214 13.521 8.76915 13.9602 8.94315C14.4021 9.11716 14.7349 9.36297 14.9586 9.6806C15.1851 9.99823 15.2984 10.3725 15.2984 10.8034C15.2984 11.1155 15.2293 11.3999 15.0912 11.6568C14.9559 11.9137 14.7653 12.1291 14.5195 12.3031C14.2737 12.4744 13.9864 12.5931 13.6577 12.6594V12.7423C14.0223 12.7561 14.3538 12.8486 14.652 13.0199C14.9503 13.1883 15.1879 13.4217 15.3646 13.72C15.5414 14.0156 15.6298 14.3636 15.6298 14.7641C15.6298 15.2281 15.5083 15.641 15.2652 16.0028C15.0249 16.3646 14.6824 16.6491 14.2377 16.8563C13.7931 17.0634 13.2628 17.167 12.6468 17.167H8.65299ZM10.9565 15.3275H12.0337C12.4204 15.3275 12.7104 15.2557 12.9037 15.1121C13.097 14.9657 13.1937 14.7502 13.1937 14.4658C13.1937 14.2669 13.1481 14.0984 13.057 13.9603C12.9658 13.8222 12.836 13.7173 12.6676 13.6454C12.5018 13.5736 12.3016 13.5377 12.0668 13.5377H10.9565V15.3275ZM10.9565 12.1125H11.9011C12.1027 12.1125 12.2809 12.0808 12.4355 12.0173C12.5902 11.9537 12.7104 11.8626 12.796 11.7438C12.8844 11.6223 12.9286 11.4745 12.9286 11.3005C12.9286 11.0381 12.8347 10.8379 12.6468 10.6998C12.459 10.5589 12.2215 10.4885 11.9342 10.4885H10.9565V12.1125Z" fill="#121212"/>
<defs>
<linearGradient id="paint0_linear_861_10057" x1="12" y1="4" x2="12" y2="21.5" gradientUnits="userSpaceOnUse">
<stop stop-color="#F8AD29"/>
<stop offset="1" stop-color="#E47D22"/>
</linearGradient>
</defs>
</svg>
