<svg width="24" height="24" viewBox="0 0 24 24" fill="none" xmlns="http://www.w3.org/2000/svg">
<path d="M2 10C2 8.42621 2.74097 6.94427 4 6L9 2.25C10.7778 0.916667 13.2222 0.916667 15 2.25L20 6C21.259 6.94427 22 8.42621 22 10V17.5C22 20.2614 19.7614 22.5 17 22.5H7C4.23858 22.5 2 20.2614 2 17.5V10Z" fill="url(#paint0_linear_503_23291)"/>
<path d="M14.1243 11.7682C14.9781 12.2911 14.9725 13.5335 14.114 14.0486L11.3527 15.7054C10.464 16.2386 9.33333 15.5985 9.33333 14.5621L9.33333 11.2142C9.33333 10.1724 10.4746 9.53302 11.363 10.0771L14.1243 11.7682Z" fill="#190224"/>
<defs>
<linearGradient id="paint0_linear_503_23291" x1="12" y1="0" x2="12" y2="22.5" gradientUnits="userSpaceOnUse">
<stop stop-color="#F8AD29"/>
<stop offset="1" stop-color="#E47D22"/>
</linearGradient>
</defs>
</svg>
