<svg width="24" height="24" viewBox="0 0 24 24" fill="none" xmlns="http://www.w3.org/2000/svg">
<rect x="10.5898" y="21" width="2.82353" height="2.82353" rx="1.41176" fill="url(#paint0_linear_503_23292)"/>
<path d="M10.3 1.74314C11.0821 0.481206 12.918 0.481208 13.7 1.74314L15.5832 4.78185C15.8589 5.2268 16.2982 5.54591 16.8065 5.67067L20.2785 6.52267C21.7203 6.87649 22.2876 8.62254 21.3291 9.75628L19.0211 12.4863C18.6831 12.8861 18.5154 13.4024 18.5538 13.9244L18.8164 17.4897C18.9254 18.9703 17.4402 20.0494 16.0657 19.4882L12.7561 18.1367C12.2714 17.9388 11.7286 17.9388 11.2439 18.1367L7.93429 19.4882C6.55984 20.0494 5.07457 18.9703 5.18362 17.4897L5.4462 13.9244C5.48465 13.4024 5.31688 12.8861 4.97892 12.4863L2.67087 9.75628C1.71237 8.62253 2.2797 6.87649 3.72154 6.52267L7.19345 5.67067C7.70184 5.54591 8.14106 5.2268 8.41681 4.78185L10.3 1.74314Z" fill="url(#paint1_linear_503_23292)"/>
<defs>
<linearGradient id="paint0_linear_503_23292" x1="12.0016" y1="21" x2="12.0016" y2="23.8235" gradientUnits="userSpaceOnUse">
<stop stop-color="#F8AD29"/>
<stop offset="1" stop-color="#E47D22"/>
</linearGradient>
<linearGradient id="paint1_linear_503_23292" x1="12" y1="-1" x2="12" y2="23" gradientUnits="userSpaceOnUse">
<stop stop-color="#F8AD29"/>
<stop offset="1" stop-color="#E47D22"/>
</linearGradient>
</defs>
</svg>
