<svg width="24" height="24" viewBox="0 0 24 24" fill="none" xmlns="http://www.w3.org/2000/svg">
<path d="M5 6.33333C5 5.04467 6.04467 4 7.33333 4H16.6667C17.9553 4 19 5.04467 19 6.33333V19.1667C19 20.4553 17.9553 21.5 16.6667 21.5H7.33333C6.04467 21.5 5 20.4553 5 19.1667V6.33333Z" fill="url(#paint0_linear_503_23296)"/>
<circle cx="7.33464" cy="6.33366" r="1.16667" fill="#121212"/>
<circle cx="16.6667" cy="19.1667" r="1.16667" fill="#121212"/>
<path d="M8.65299 17.167H12.6468C14.4905 17.167 15.6298 16.1602 15.6298 14.7641C15.6298 13.5667 14.7473 12.7837 13.6577 12.7423V12.6594C14.6396 12.4647 15.2984 11.7397 15.2984 10.8034C15.2984 9.51074 14.2709 8.68214 12.332 8.68214H8.65299V17.167ZM10.9565 15.3275V13.5377H12.0668C12.767 13.5377 13.1937 13.8692 13.1937 14.4658C13.1937 15.0334 12.8084 15.3275 12.0337 15.3275H10.9565ZM10.9565 12.1125V10.4885H11.9342C12.506 10.4885 12.9286 10.7785 12.9286 11.3005C12.9286 11.8225 12.506 12.1125 11.9011 12.1125H10.9565Z" fill="#121212"/>
<defs>
<linearGradient id="paint0_linear_503_23296" x1="12" y1="4" x2="12" y2="21.5" gradientUnits="userSpaceOnUse">
<stop stop-color="#F8AD29"/>
<stop offset="1" stop-color="#E47D22"/>
</linearGradient>
</defs>
</svg>
