<svg width="24" height="24" viewBox="0 0 24 24" fill="none" xmlns="http://www.w3.org/2000/svg">
<path d="M2 9C2 8.30964 2.55964 7.75 3.25 7.75H4.5C5.19036 7.75 5.75 8.30964 5.75 9V15.25C5.75 15.9404 5.19036 16.5 4.5 16.5H3.25C2.55964 16.5 2 15.9404 2 15.25V9Z" fill="url(#paint0_linear_503_23293)"/>
<path d="M22 15.25C22 15.9404 21.4404 16.5 20.75 16.5L19.5 16.5C18.8096 16.5 18.25 15.9404 18.25 15.25L18.25 9C18.25 8.30965 18.8096 7.75 19.5 7.75L20.75 7.75C21.4404 7.75 22 8.30964 22 9L22 15.25Z" fill="url(#paint1_linear_503_23293)"/>
<path d="M5.58693 5.05993C5.68075 4.45014 6.20543 4 6.8224 4H17.1776C17.7946 4 18.3193 4.45014 18.4131 5.05993L18.8274 7.75336C19.2732 10.6507 19.2732 13.5993 18.8274 16.4966L18.4131 19.1901C18.3193 19.7999 17.7946 20.25 17.1776 20.25H6.8224C6.20544 20.25 5.68075 19.7999 5.58693 19.1901L5.17256 16.4966C4.72681 13.5993 4.72681 10.6507 5.17256 7.75336L5.58693 5.05993Z" fill="url(#paint2_linear_503_23293)"/>
<path d="M9.7579 16.5H11.7892L14.6585 10.804V9.22727H9.26074V10.804H12.613V10.8466L9.7579 16.5Z" fill="#190224"/>
<defs>
<linearGradient id="paint0_linear_503_23293" x1="3.875" y1="7.75" x2="3.875" y2="16.5" gradientUnits="userSpaceOnUse">
<stop stop-color="#ED9326" stop-opacity="0"/>
<stop offset="1" stop-color="#EB8E25"/>
</linearGradient>
<linearGradient id="paint1_linear_503_23293" x1="20.125" y1="16.5" x2="20.125" y2="7.75" gradientUnits="userSpaceOnUse">
<stop stop-color="#ED9326" stop-opacity="0"/>
<stop offset="1" stop-color="#EB8E25"/>
</linearGradient>
<linearGradient id="paint2_linear_503_23293" x1="12" y1="4" x2="12" y2="20.25" gradientUnits="userSpaceOnUse">
<stop stop-color="#F8AD29"/>
<stop offset="1" stop-color="#E47D22"/>
</linearGradient>
</defs>
</svg>
