<svg width="147" height="39" viewBox="0 0 147 39" fill="none" xmlns="http://www.w3.org/2000/svg">
<g clip-path="url(#clip0_901_20878)">
<path d="M91.2239 15.0887H95.5573C96.7211 15.0887 97.6628 16.0181 97.6628 17.1665C97.6628 18.3149 96.7211 19.2443 95.5573 19.2443H91.2239V15.0887ZM89.3327 27.3438C89.8457 27.3513 90.3357 27.1473 90.6879 26.7847C91.0401 26.4447 91.2392 25.9687 91.2315 25.4776V22.9767H95.565C97.1881 22.9767 98.5816 22.41 99.73 21.2691C100.878 20.1282 101.46 18.7607 101.46 17.1665C101.46 15.5647 100.886 14.1972 99.73 13.0638C98.5739 11.9305 97.1881 11.3563 95.565 11.3563H89.3404C88.3221 11.3261 87.4723 12.1194 87.4416 13.1318C87.4416 13.1621 87.4416 13.1923 87.4416 13.2225V25.4776C87.434 25.9687 87.6254 26.4371 87.9852 26.7847C88.3298 27.1473 88.8198 27.3513 89.3327 27.3438Z" fill="#F8AD29"/>
<path d="M114.522 27.3433C115.02 27.3509 115.502 27.162 115.847 26.8069C116.589 26.0891 116.605 24.9105 115.877 24.17C115.87 24.1625 115.854 24.1473 115.847 24.1398C115.495 23.7922 115.02 23.5958 114.522 23.6033H107.509V13.2221C107.532 12.187 106.697 11.3332 105.648 11.3105C104.6 11.2878 103.734 12.1114 103.711 13.1465C103.711 13.1692 103.711 13.1994 103.711 13.2221V25.4771C103.688 26.482 104.492 27.3207 105.518 27.3433C105.549 27.3433 105.58 27.3433 105.61 27.3433H114.522Z" fill="#F8AD29"/>
<path d="M139.306 27.3437C140.324 27.3663 141.174 26.573 141.197 25.5681C141.197 25.5379 141.197 25.5077 141.197 25.4775V21.6921L146.64 14.3104C146.946 13.9175 147.061 13.4113 146.962 12.9278C146.885 12.4366 146.61 11.9909 146.204 11.7038C145.798 11.4091 145.293 11.2958 144.795 11.3864C144.297 11.462 143.846 11.7264 143.547 12.1344L139.298 17.9144L135.072 12.1344C134.773 11.734 134.329 11.462 133.824 11.3864C132.805 11.2127 131.841 11.8851 131.665 12.89C131.665 12.9051 131.657 12.9202 131.657 12.9278C131.558 13.4113 131.68 13.9175 131.979 14.3104L137.392 21.6921V25.4775C137.384 25.9837 137.591 26.4597 137.958 26.8072C138.326 27.1623 138.808 27.3512 139.306 27.3437Z" fill="#F8AD29"/>
<path d="M43.6337 15.0885H48.8629C49.5366 15.0885 50.0802 15.6325 50.0802 16.2974C50.0802 16.6147 49.9501 16.9169 49.728 17.1436C49.4983 17.3627 49.1844 17.4911 48.8629 17.4911H43.6337V15.0885ZM43.6337 23.6111V21.216H49.751C50.0726 21.216 50.3865 21.3369 50.6162 21.5636C51.0832 22.0396 51.0832 22.7951 50.6162 23.2711C50.3865 23.4902 50.0726 23.6187 49.751 23.6187L43.6337 23.6111ZM49.751 27.3435C51.1215 27.3435 52.3005 26.8675 53.2729 25.908C54.2682 24.9333 54.7658 23.7698 54.7582 22.4173C54.7582 20.9969 54.2146 19.7956 53.1351 18.8209C53.6098 18.0578 53.8624 17.1814 53.8624 16.2898C53.8624 14.9223 53.3724 13.7587 52.4001 12.7992C51.4048 11.8396 50.2257 11.3636 48.8552 11.3636H41.7349C40.7166 11.3334 39.8668 12.1343 39.8362 13.1392C39.8362 13.1694 39.8362 13.1996 39.8362 13.2298V25.4773C39.8285 25.9684 40.0199 26.4369 40.3798 26.7844C40.7319 27.1471 41.2219 27.3511 41.7349 27.3435H49.751V27.3435Z" fill="#E47D22"/>
<path d="M61.1647 15.0884V25.4772C61.1877 26.4972 62.0222 27.3208 63.0634 27.3434C63.5764 27.351 64.0664 27.147 64.4186 26.7843C64.7708 26.4443 64.9698 25.9683 64.9622 25.4772V15.0884H68.3998C69.4411 15.0884 70.2909 14.2497 70.2909 13.2222C70.2909 12.1946 69.4488 11.356 68.3998 11.356H57.727C56.6858 11.356 55.8359 12.1946 55.8359 13.2222C55.8359 14.2497 56.6781 15.0884 57.727 15.0884H61.1647Z" fill="#E47D22"/>
<path d="M78.4065 27.3431C81.0403 27.3431 83.1687 26.3231 84.7995 24.2756C85.1211 23.8978 85.2589 23.3992 85.1823 22.9156C85.1364 22.4169 84.8837 21.9636 84.4779 21.6614C84.0798 21.3441 83.5745 21.2081 83.0692 21.2912C82.5715 21.329 82.1121 21.5858 81.8212 21.9863C80.956 23.0667 79.8153 23.6107 78.4065 23.6107C77.2581 23.6258 76.1479 23.1725 75.344 22.3565C74.4942 21.5254 74.0731 20.5205 74.0731 19.3419C74.0731 18.1632 74.4942 17.1659 75.344 16.3348C76.1479 15.5188 77.2581 15.0654 78.4065 15.0806C79.8153 15.0806 80.9484 15.6246 81.8212 16.705C82.1121 17.1054 82.5715 17.3548 83.0692 17.4001C83.5745 17.4757 84.0798 17.3397 84.4779 17.0299C84.8837 16.7277 85.1364 16.2743 85.1823 15.7757C85.2589 15.2921 85.1211 14.7935 84.7995 14.4157C83.1764 12.3757 81.0479 11.3481 78.4065 11.3481C76.1709 11.3481 74.2568 12.1264 72.6643 13.6903C71.0718 15.2543 70.2832 17.1357 70.2832 19.3419C70.2832 21.5481 71.0795 23.4294 72.6643 24.9934C74.2568 26.5574 76.1632 27.3431 78.4065 27.3431Z" fill="#E47D22"/>
<path d="M133.341 24.6235L127.116 12.3685C126.795 11.749 126.228 11.4316 125.44 11.4316C124.628 11.4316 124.062 11.7414 123.732 12.3685L117.508 24.6235C117.278 25.0693 117.24 25.5831 117.401 26.0591C117.554 26.5275 117.898 26.9129 118.35 27.1244C118.595 27.2529 118.871 27.3284 119.154 27.336H131.71C131.993 27.3284 132.269 27.2529 132.514 27.1244C132.966 26.9129 133.31 26.5275 133.463 26.0591C133.609 25.5831 133.571 25.0693 133.341 24.6235ZM123.809 20.5436L125.432 17.3703L127.032 20.5436L128.449 23.324H122.4L123.809 20.5436Z" fill="#F8AD29"/>
<path d="M34.2552 15.9649C34.3012 14.2271 33.4284 12.5951 31.9507 11.6582L15.0074 0.808522C12.6646 -0.695025 9.52555 -0.0301396 8.00961 2.28185C7.60383 2.9014 7.33586 3.60406 7.23633 4.33694L12.7105 7.82003V7.49515C12.7105 6.99648 13.124 6.58849 13.6293 6.58849C13.8054 6.58849 13.9815 6.64137 14.127 6.7396L27.0584 15.0204C27.4871 15.2924 27.602 15.8515 27.3263 16.2746C27.2498 16.3955 27.1426 16.4938 27.0201 16.5618L26.7445 16.7204L26.7291 16.728L21.4004 19.7955L14.2877 23.8755L14.104 23.9813L12.7105 24.7746V31.0608L26.5913 23.1048L31.9354 20.0448C33.3518 19.1533 34.217 17.6195 34.2552 15.9649Z" fill="url(#paint0_linear_901_20878)"/>
<path d="M34.2552 15.9649C34.3012 14.2271 33.4284 12.5951 31.9507 11.6582L15.0074 0.808522C12.6646 -0.695025 9.52555 -0.0301396 8.00961 2.28185C7.60383 2.9014 7.33586 3.60406 7.23633 4.33694L12.7105 7.82003V7.49515C12.7105 6.99648 13.124 6.58849 13.6293 6.58849C13.8054 6.58849 13.9815 6.64137 14.127 6.7396L27.0584 15.0204C27.4871 15.2924 27.602 15.8515 27.3263 16.2746C27.2498 16.3955 27.1426 16.4938 27.0201 16.5618L26.7445 16.7204L26.7291 16.728L21.4004 19.7955L14.2877 23.8755L14.104 23.9813L12.7105 24.7746V31.0608L26.5913 23.1048L31.9354 20.0448C33.3518 19.1533 34.217 17.6195 34.2552 15.9649Z" fill="url(#paint1_radial_901_20878)"/>
<path d="M34.2552 15.9649C34.3012 14.2271 33.4284 12.5951 31.9507 11.6582L15.0074 0.808522C12.6646 -0.695025 9.52555 -0.0301396 8.00961 2.28185C7.60383 2.9014 7.33586 3.60406 7.23633 4.33694L12.7105 7.82003V7.49515C12.7105 6.99648 13.124 6.58849 13.6293 6.58849C13.8054 6.58849 13.9815 6.64137 14.127 6.7396L27.0584 15.0204C27.4871 15.2924 27.602 15.8515 27.3263 16.2746C27.2498 16.3955 27.1426 16.4938 27.0201 16.5618L26.7445 16.7204L26.7291 16.728L21.4004 19.7955L14.2877 23.8755L14.104 23.9813L12.7105 24.7746V31.0608L26.5913 23.1048L31.9354 20.0448C33.3518 19.1533 34.217 17.6195 34.2552 15.9649Z" fill="url(#paint2_linear_901_20878)"/>
<path d="M6.89833 28.1066C6.46193 28.3559 5.89536 28.2048 5.64271 27.7742C5.56615 27.6382 5.52021 27.4795 5.52021 27.3208V11.3409C5.52021 10.8423 5.93365 10.4343 6.43896 10.4343C6.61505 10.4343 6.79115 10.4872 6.93662 10.5778L7.18927 10.7365L7.22755 10.7592L12.7094 14.2498L16.6065 16.7356L20.136 18.9871L21.3993 19.788L26.728 16.728L12.7094 7.82008L7.23521 4.33699C4.70864 3.15077 1.69208 4.20854 0.490046 6.70186C0.168483 7.36674 4.52361e-05 8.09963 4.52361e-05 8.84007V29.6857C-0.00761102 31.4764 0.957078 33.131 2.53427 34.0075C3.99661 34.8386 5.71927 34.5968 7.21224 33.8941L7.2199 27.9177L6.89833 28.1066Z" fill="url(#paint3_linear_901_20878)"/>
<path d="M6.90613 28.1066C6.46973 28.3559 5.90317 28.2048 5.65051 27.7742C5.57395 27.6382 5.52801 27.4795 5.52801 27.3208V11.3409C5.52801 10.8423 5.93379 10.4343 6.44676 10.4343C6.62285 10.4343 6.79895 10.4872 6.94441 10.5778L7.19707 10.7365L7.23535 10.7667L12.7172 14.2574L16.6066 16.7431L20.1285 18.9947L21.3917 19.8031L26.7205 16.7431L12.7019 7.82763L7.24301 4.33699C4.71645 3.15077 1.69989 4.20854 0.497857 6.70186C0.176295 7.3743 0.00785774 8.09963 0.00785774 8.84762V29.6933C0.000201492 31.4839 0.964888 33.1386 2.54207 34.015C4.00442 34.8461 5.71942 34.6044 7.22004 33.9017L7.2277 27.9253L6.90613 28.1066Z" fill="url(#paint4_linear_901_20878)"/>
<path d="M26.7652 23.2181C27.1939 23.4901 27.3164 24.0492 27.0408 24.4723C26.9642 24.5932 26.857 24.6914 26.7345 24.7594L14.1017 32.0882C13.6653 32.3451 13.0988 32.2016 12.8461 31.7709C12.7619 31.6274 12.7159 31.4687 12.7159 31.31V14.2572L7.23406 10.7666L7.22641 27.9252L7.21875 34.2038C7.50969 36.9464 9.99797 38.9411 12.7772 38.6615C13.4969 38.586 14.1936 38.3593 14.8214 37.9967L31.4661 28.3407C32.9131 27.5021 34.1611 26.195 34.2377 24.6839C34.3831 21.7825 32.4691 20.4452 31.9331 20.0448L26.5891 23.1047L26.7652 23.2181Z" fill="url(#paint5_linear_901_20878)"/>
<path d="M26.7652 23.2181C27.1939 23.4901 27.3164 24.0492 27.0408 24.4723C26.9642 24.5932 26.857 24.6914 26.7345 24.7594L14.1017 32.0882C13.6653 32.3451 13.0988 32.2016 12.8461 31.7709C12.7619 31.6274 12.7159 31.4687 12.7159 31.31V14.2572L7.23406 10.7666L7.22641 27.9252L7.21875 34.2038C7.50969 36.9464 9.99797 38.9411 12.7772 38.6615C13.4969 38.586 14.1936 38.3593 14.8214 37.9967L31.4661 28.3407C32.9131 27.5021 34.1611 26.195 34.2377 24.6839C34.3831 21.7825 32.4691 20.4452 31.9331 20.0448L26.5891 23.1047L26.7652 23.2181Z" fill="url(#paint6_linear_901_20878)"/>
<path opacity="0.7" d="M26.7652 23.2181C27.1939 23.4901 27.3164 24.0492 27.0408 24.4723C26.9642 24.5932 26.857 24.6914 26.7345 24.7594L14.1017 32.0882C13.6653 32.3451 13.0988 32.2016 12.8461 31.7709C12.7619 31.6274 12.7159 31.4687 12.7159 31.31V14.2572L7.23406 10.7666L7.22641 27.9252L7.21875 34.2038C7.50969 36.9464 9.99797 38.9411 12.7772 38.6615C13.4969 38.586 14.1936 38.3593 14.8214 37.9967L31.4661 28.3407C32.9131 27.5021 34.1611 26.195 34.2377 24.6839C34.3831 21.7825 32.4691 20.4452 31.9331 20.0448L26.5891 23.1047L26.7652 23.2181Z" fill="url(#paint7_linear_901_20878)"/>
</g>
<defs>
<linearGradient id="paint0_linear_901_20878" x1="33.2184" y1="10.4497" x2="7.40942" y2="16.8493" gradientUnits="userSpaceOnUse">
<stop offset="0.08" stop-color="#FFD15F"/>
<stop offset="0.14" stop-color="#FCCC59"/>
<stop offset="0.21" stop-color="#F4BC50"/>
<stop offset="0.28" stop-color="#E5A643"/>
<stop offset="0.36" stop-color="#D4822F"/>
<stop offset="0.43" stop-color="#BF621A"/>
<stop offset="0.47" stop-color="#AE581B"/>
<stop offset="0.56" stop-color="#7C411D"/>
<stop offset="0.61" stop-color="#69381C"/>
<stop offset="0.66" stop-color="#542E18"/>
<stop offset="0.74" stop-color="#422719"/>
<stop offset="0.79" stop-color="#3A2317"/>
<stop offset="1" stop-color="#020303"/>
</linearGradient>
<radialGradient id="paint1_radial_901_20878" cx="0" cy="0" r="1" gradientUnits="userSpaceOnUse" gradientTransform="translate(11.8172 5.37985) scale(27.9997 27.6368)">
<stop stop-color="#EF7A25"/>
<stop offset="0.35" stop-color="#F1851C"/>
<stop offset="0.85" stop-color="#F9B24C" stop-opacity="0"/>
</radialGradient>
<linearGradient id="paint2_linear_901_20878" x1="26.9947" y1="3.57916" x2="7.11191" y2="25.8604" gradientUnits="userSpaceOnUse">
<stop stop-color="#FBC05E" stop-opacity="0"/>
<stop offset="0.49" stop-color="#3A2317" stop-opacity="0.3"/>
<stop offset="1" stop-color="#020303"/>
</linearGradient>
<linearGradient id="paint3_linear_901_20878" x1="14.2554" y1="9.28824" x2="7.28719" y2="34.6994" gradientUnits="userSpaceOnUse">
<stop stop-color="#F8AE2A"/>
<stop offset="0.38" stop-color="#B46A2B"/>
<stop offset="0.46" stop-color="#985E2B"/>
<stop offset="0.56" stop-color="#7C4E2C"/>
<stop offset="0.67" stop-color="#593724"/>
<stop offset="0.91" stop-color="#020303"/>
</linearGradient>
<linearGradient id="paint4_linear_901_20878" x1="0.00402196" y1="19.1942" x2="26.7324" y2="19.1942" gradientUnits="userSpaceOnUse">
<stop stop-color="#1E201D" stop-opacity="0"/>
<stop offset="0.26" stop-color="#EE7512" stop-opacity="0"/>
<stop offset="0.27" stop-color="#EF7816" stop-opacity="0.03"/>
<stop offset="0.37" stop-color="#F59C49" stop-opacity="0.26"/>
<stop offset="0.47" stop-color="#F6B878" stop-opacity="0.45"/>
<stop offset="0.56" stop-color="#FBD2A0" stop-opacity="0.61"/>
<stop offset="0.66" stop-color="#FDE5BD" stop-opacity="0.74"/>
<stop offset="0.75" stop-color="#FDF0D2" stop-opacity="0.83"/>
<stop offset="0.83" stop-color="#FEF9E3" stop-opacity="0.88"/>
<stop offset="0.91" stop-color="#FEFCE7" stop-opacity="0.9"/>
</linearGradient>
<linearGradient id="paint5_linear_901_20878" x1="21.6217" y1="29.9716" x2="3.93413" y2="10.1" gradientUnits="userSpaceOnUse">
<stop stop-color="#F49924"/>
<stop offset="0.23" stop-color="#B46A2B"/>
<stop offset="0.37" stop-color="#7C4E2C"/>
<stop offset="0.65" stop-color="#1B1716"/>
<stop offset="0.89" stop-color="#030304"/>
<stop offset="1" stop-color="#020303"/>
</linearGradient>
<linearGradient id="paint6_linear_901_20878" x1="8.94514" y1="24.727" x2="36.3518" y2="24.6284" gradientUnits="userSpaceOnUse">
<stop offset="0.18" stop-color="#FECE5C" stop-opacity="0"/>
<stop offset="1" stop-color="#FDCB67"/>
</linearGradient>
<linearGradient id="paint7_linear_901_20878" x1="6.1849" y1="24.837" x2="33.5901" y2="23.9534" gradientUnits="userSpaceOnUse">
<stop offset="0.18" stop-color="#EE7512" stop-opacity="0"/>
<stop offset="0.36" stop-color="#F8BB82" stop-opacity="0.37"/>
<stop offset="0.51" stop-color="#FACA9E" stop-opacity="0.56"/>
<stop offset="0.67" stop-color="#FCDAB9" stop-opacity="0.75"/>
<stop offset="0.82" stop-color="#FEE6D0" stop-opacity="0.89"/>
<stop offset="0.93" stop-color="#FEEDDB" stop-opacity="0.97"/>
<stop offset="1" stop-color="#FFF0DF"/>
</linearGradient>
<clipPath id="clip0_901_20878">
<rect width="147" height="38.6842" fill="white"/>
</clipPath>
</defs>
</svg>
