<svg width="34" height="39" viewBox="0 0 34 39" fill="none" xmlns="http://www.w3.org/2000/svg">
<g clip-path="url(#clip0_1049_9623)">
<path d="M34.2552 15.9649C34.3012 14.2271 33.4284 12.5951 31.9507 11.6582L15.0074 0.808522C12.6646 -0.695024 9.52555 -0.0301396 8.00961 2.28185C7.60383 2.9014 7.33586 3.60406 7.23633 4.33695L12.7105 7.82003V7.49515C12.7105 6.99648 13.124 6.58849 13.6293 6.58849C13.8054 6.58849 13.9815 6.64137 14.127 6.7396L27.0584 15.0204C27.4871 15.2924 27.602 15.8515 27.3263 16.2746C27.2498 16.3955 27.1426 16.4938 27.0201 16.5618L26.7445 16.7204L26.7291 16.728L21.4004 19.7955L14.2877 23.8755L14.104 23.9813L12.7105 24.7746V31.0608L26.5913 23.1048L31.9354 20.0448C33.3518 19.1533 34.217 17.6195 34.2552 15.9649Z" fill="url(#paint0_linear_1049_9623)"/>
<path d="M34.2552 15.9649C34.3012 14.2271 33.4284 12.5951 31.9507 11.6582L15.0074 0.808522C12.6646 -0.695024 9.52555 -0.0301396 8.00961 2.28185C7.60383 2.9014 7.33586 3.60406 7.23633 4.33695L12.7105 7.82003V7.49515C12.7105 6.99648 13.124 6.58849 13.6293 6.58849C13.8054 6.58849 13.9815 6.64137 14.127 6.7396L27.0584 15.0204C27.4871 15.2924 27.602 15.8515 27.3263 16.2746C27.2498 16.3955 27.1426 16.4938 27.0201 16.5618L26.7445 16.7204L26.7291 16.728L21.4004 19.7955L14.2877 23.8755L14.104 23.9813L12.7105 24.7746V31.0608L26.5913 23.1048L31.9354 20.0448C33.3518 19.1533 34.217 17.6195 34.2552 15.9649Z" fill="url(#paint1_radial_1049_9623)"/>
<path d="M34.2552 15.9649C34.3012 14.2271 33.4284 12.5951 31.9507 11.6582L15.0074 0.808522C12.6646 -0.695024 9.52555 -0.0301396 8.00961 2.28185C7.60383 2.9014 7.33586 3.60406 7.23633 4.33695L12.7105 7.82003V7.49515C12.7105 6.99648 13.124 6.58849 13.6293 6.58849C13.8054 6.58849 13.9815 6.64137 14.127 6.7396L27.0584 15.0204C27.4871 15.2924 27.602 15.8515 27.3263 16.2746C27.2498 16.3955 27.1426 16.4938 27.0201 16.5618L26.7445 16.7204L26.7291 16.728L21.4004 19.7955L14.2877 23.8755L14.104 23.9813L12.7105 24.7746V31.0608L26.5913 23.1048L31.9354 20.0448C33.3518 19.1533 34.217 17.6195 34.2552 15.9649Z" fill="url(#paint2_linear_1049_9623)"/>
<path d="M6.89833 28.1066C6.46193 28.3559 5.89536 28.2048 5.64271 27.7742C5.56615 27.6382 5.52021 27.4795 5.52021 27.3208V11.3409C5.52021 10.8423 5.93365 10.4343 6.43896 10.4343C6.61505 10.4343 6.79115 10.4872 6.93662 10.5778L7.18927 10.7365L7.22755 10.7592L12.7094 14.2498L16.6065 16.7356L20.136 18.9871L21.3993 19.788L26.728 16.728L12.7094 7.82008L7.23521 4.33699C4.70864 3.15077 1.69208 4.20854 0.490046 6.70186C0.168483 7.36674 4.52361e-05 8.09963 4.52361e-05 8.84007V29.6857C-0.00761102 31.4764 0.957078 33.131 2.53427 34.0075C3.99661 34.8386 5.71927 34.5968 7.21224 33.8941L7.2199 27.9177L6.89833 28.1066Z" fill="url(#paint3_linear_1049_9623)"/>
<path d="M6.90613 28.1066C6.46973 28.3559 5.90317 28.2048 5.65051 27.7742C5.57395 27.6382 5.52801 27.4795 5.52801 27.3208V11.3409C5.52801 10.8423 5.93379 10.4343 6.44676 10.4343C6.62285 10.4343 6.79895 10.4872 6.94441 10.5778L7.19707 10.7365L7.23535 10.7667L12.7172 14.2574L16.6066 16.7431L20.1285 18.9947L21.3917 19.8031L26.7205 16.7431L12.7019 7.82763L7.24301 4.33699C4.71645 3.15077 1.69989 4.20854 0.497857 6.70186C0.176295 7.3743 0.00785774 8.09963 0.00785774 8.84762V29.6933C0.000201493 31.4839 0.964888 33.1386 2.54207 34.015C4.00442 34.8461 5.71942 34.6044 7.22004 33.9017L7.2277 27.9253L6.90613 28.1066Z" fill="url(#paint4_linear_1049_9623)"/>
<path d="M26.7652 23.2181C27.1939 23.4901 27.3164 24.0492 27.0408 24.4723C26.9642 24.5932 26.857 24.6914 26.7345 24.7594L14.1017 32.0882C13.6653 32.3451 13.0988 32.2016 12.8461 31.7709C12.7619 31.6274 12.7159 31.4687 12.7159 31.31V14.2572L7.23406 10.7666L7.22641 27.9252L7.21875 34.2038C7.50969 36.9464 9.99797 38.9411 12.7772 38.6615C13.4969 38.586 14.1936 38.3593 14.8214 37.9967L31.4661 28.3407C32.9131 27.5021 34.1611 26.195 34.2377 24.6839C34.3831 21.7825 32.4691 20.4452 31.9331 20.0448L26.5891 23.1047L26.7652 23.2181Z" fill="url(#paint5_linear_1049_9623)"/>
<path d="M26.7652 23.2181C27.1939 23.4901 27.3164 24.0492 27.0408 24.4723C26.9642 24.5932 26.857 24.6914 26.7345 24.7594L14.1017 32.0882C13.6653 32.3451 13.0988 32.2016 12.8461 31.7709C12.7619 31.6274 12.7159 31.4687 12.7159 31.31V14.2572L7.23406 10.7666L7.22641 27.9252L7.21875 34.2038C7.50969 36.9464 9.99797 38.9411 12.7772 38.6615C13.4969 38.586 14.1936 38.3593 14.8214 37.9967L31.4661 28.3407C32.9131 27.5021 34.1611 26.195 34.2377 24.6839C34.3831 21.7825 32.4691 20.4452 31.9331 20.0448L26.5891 23.1047L26.7652 23.2181Z" fill="url(#paint6_linear_1049_9623)"/>
<path opacity="0.7" d="M26.7652 23.2181C27.1939 23.4901 27.3164 24.0492 27.0408 24.4723C26.9642 24.5932 26.857 24.6914 26.7345 24.7594L14.1017 32.0882C13.6653 32.3451 13.0988 32.2016 12.8461 31.7709C12.7619 31.6274 12.7159 31.4687 12.7159 31.31V14.2572L7.23406 10.7666L7.22641 27.9252L7.21875 34.2038C7.50969 36.9464 9.99797 38.9411 12.7772 38.6615C13.4969 38.586 14.1936 38.3593 14.8214 37.9967L31.4661 28.3407C32.9131 27.5021 34.1611 26.195 34.2377 24.6839C34.3831 21.7825 32.4691 20.4452 31.9331 20.0448L26.5891 23.1047L26.7652 23.2181Z" fill="url(#paint7_linear_1049_9623)"/>
</g>
<defs>
<linearGradient id="paint0_linear_1049_9623" x1="33.2184" y1="10.4497" x2="7.40942" y2="16.8493" gradientUnits="userSpaceOnUse">
<stop offset="0.08" stop-color="#FFD15F"/>
<stop offset="0.14" stop-color="#FCCC59"/>
<stop offset="0.21" stop-color="#F4BC50"/>
<stop offset="0.28" stop-color="#E5A643"/>
<stop offset="0.36" stop-color="#D4822F"/>
<stop offset="0.43" stop-color="#BF621A"/>
<stop offset="0.47" stop-color="#AE581B"/>
<stop offset="0.56" stop-color="#7C411D"/>
<stop offset="0.61" stop-color="#69381C"/>
<stop offset="0.66" stop-color="#542E18"/>
<stop offset="0.74" stop-color="#422719"/>
<stop offset="0.79" stop-color="#3A2317"/>
<stop offset="1" stop-color="#020303"/>
</linearGradient>
<radialGradient id="paint1_radial_1049_9623" cx="0" cy="0" r="1" gradientUnits="userSpaceOnUse" gradientTransform="translate(11.8172 5.37985) scale(27.9997 27.6368)">
<stop stop-color="#EF7A25"/>
<stop offset="0.35" stop-color="#F1851C"/>
<stop offset="0.85" stop-color="#F9B24C" stop-opacity="0"/>
</radialGradient>
<linearGradient id="paint2_linear_1049_9623" x1="26.9947" y1="3.57916" x2="7.11191" y2="25.8604" gradientUnits="userSpaceOnUse">
<stop stop-color="#FBC05E" stop-opacity="0"/>
<stop offset="0.49" stop-color="#3A2317" stop-opacity="0.3"/>
<stop offset="1" stop-color="#020303"/>
</linearGradient>
<linearGradient id="paint3_linear_1049_9623" x1="14.2554" y1="9.28824" x2="7.28719" y2="34.6994" gradientUnits="userSpaceOnUse">
<stop stop-color="#F8AE2A"/>
<stop offset="0.38" stop-color="#B46A2B"/>
<stop offset="0.46" stop-color="#985E2B"/>
<stop offset="0.56" stop-color="#7C4E2C"/>
<stop offset="0.67" stop-color="#593724"/>
<stop offset="0.91" stop-color="#020303"/>
</linearGradient>
<linearGradient id="paint4_linear_1049_9623" x1="0.00402196" y1="19.1942" x2="26.7324" y2="19.1942" gradientUnits="userSpaceOnUse">
<stop stop-color="#1E201D" stop-opacity="0"/>
<stop offset="0.26" stop-color="#EE7512" stop-opacity="0"/>
<stop offset="0.27" stop-color="#EF7816" stop-opacity="0.03"/>
<stop offset="0.37" stop-color="#F59C49" stop-opacity="0.26"/>
<stop offset="0.47" stop-color="#F6B878" stop-opacity="0.45"/>
<stop offset="0.56" stop-color="#FBD2A0" stop-opacity="0.61"/>
<stop offset="0.66" stop-color="#FDE5BD" stop-opacity="0.74"/>
<stop offset="0.75" stop-color="#FDF0D2" stop-opacity="0.83"/>
<stop offset="0.83" stop-color="#FEF9E3" stop-opacity="0.88"/>
<stop offset="0.91" stop-color="#FEFCE7" stop-opacity="0.9"/>
</linearGradient>
<linearGradient id="paint5_linear_1049_9623" x1="21.6217" y1="29.9716" x2="3.93413" y2="10.1" gradientUnits="userSpaceOnUse">
<stop stop-color="#F49924"/>
<stop offset="0.23" stop-color="#B46A2B"/>
<stop offset="0.37" stop-color="#7C4E2C"/>
<stop offset="0.65" stop-color="#1B1716"/>
<stop offset="0.89" stop-color="#030304"/>
<stop offset="1" stop-color="#020303"/>
</linearGradient>
<linearGradient id="paint6_linear_1049_9623" x1="8.94514" y1="24.727" x2="36.3518" y2="24.6284" gradientUnits="userSpaceOnUse">
<stop offset="0.18" stop-color="#FECE5C" stop-opacity="0"/>
<stop offset="1" stop-color="#FDCB67"/>
</linearGradient>
<linearGradient id="paint7_linear_1049_9623" x1="6.1849" y1="24.837" x2="33.5901" y2="23.9534" gradientUnits="userSpaceOnUse">
<stop offset="0.18" stop-color="#EE7512" stop-opacity="0"/>
<stop offset="0.36" stop-color="#F8BB82" stop-opacity="0.37"/>
<stop offset="0.51" stop-color="#FACA9E" stop-opacity="0.56"/>
<stop offset="0.67" stop-color="#FCDAB9" stop-opacity="0.75"/>
<stop offset="0.82" stop-color="#FEE6D0" stop-opacity="0.89"/>
<stop offset="0.93" stop-color="#FEEDDB" stop-opacity="0.97"/>
<stop offset="1" stop-color="#FFF0DF"/>
</linearGradient>
<clipPath id="clip0_1049_9623">
<rect width="34" height="39" fill="white"/>
</clipPath>
</defs>
</svg>
