<svg width="22" height="22" viewBox="0 0 22 22" fill="none" xmlns="http://www.w3.org/2000/svg">
<circle cx="11" cy="10.9995" r="5.5" fill="white"/>
<path d="M11 1.49951L12.299 3.74951H9.70096L11 1.49951Z" fill="white"/>
<path d="M11 20.4995L12.299 18.2495H9.70096L11 20.4995Z" fill="white"/>
<path d="M17.7169 4.28197L17.0445 6.79152L15.2074 4.95441L17.7169 4.28197Z" fill="white"/>
<path d="M4.28332 17.717L6.79287 17.0446L4.95575 15.2075L4.28332 17.717Z" fill="white"/>
<path d="M4.28309 4.28197L4.95552 6.79152L6.79264 4.95441L4.28309 4.28197Z" fill="white"/>
<path d="M17.7167 17.717L15.2071 17.0446L17.0443 15.2075L17.7167 17.717Z" fill="white"/>
<path d="M20.498 11L18.248 9.70096L18.248 12.299L20.498 11Z" fill="white"/>
<path d="M1.5 10.999L3.75 9.69999L3.75 12.2981L1.5 10.999Z" fill="white"/>
</svg>
