<svg width="488" height="406" viewBox="0 0 488 406" fill="none" xmlns="http://www.w3.org/2000/svg">
<path d="M487.618 227.192C488.272 202.462 475.847 179.237 454.812 165.905L213.62 11.5051C180.269 -9.89152 135.584 -0.429699 114.004 32.4716C108.228 41.2883 104.413 51.2878 102.996 61.7173L180.923 111.284V106.661C180.923 99.5646 186.809 93.7584 194.002 93.7584C196.509 93.7584 199.015 94.5111 201.086 95.9089L385.169 213.752C391.272 217.622 392.907 225.579 388.983 231.6C387.893 233.32 386.367 234.718 384.624 235.686L380.7 237.944L380.482 238.051L304.626 281.705L203.375 339.766L200.759 341.271L180.923 352.561V442.018L378.52 328.799L454.595 285.253C474.757 272.565 487.073 250.739 487.618 227.192Z" fill="white" fill-opacity="0.04"/>
<path d="M98.1998 399.975C91.9874 403.524 83.9222 401.373 80.3256 395.245C79.2357 393.309 78.5818 391.051 78.5818 388.793V161.387C78.5818 154.291 84.4672 148.485 91.6605 148.485C94.1672 148.485 96.674 149.237 98.7448 150.527L102.341 152.785L102.886 153.108L180.923 202.782L236.398 238.157L286.642 270.198L304.625 281.595L380.482 238.049L180.923 111.282L102.995 61.7153C67.0289 44.8346 24.0872 59.8875 6.97595 95.3693C2.3984 104.831 0.00064395 115.261 0.00064395 125.798V422.447C-0.108345 447.93 13.6243 471.477 36.076 483.949C56.893 495.776 81.4155 492.336 102.668 482.336L102.777 397.287L98.1998 399.975Z" fill="white" fill-opacity="0.04"/>
<path d="M381.022 330.412C387.126 334.283 388.87 342.239 384.946 348.26C383.856 349.981 382.33 351.378 380.587 352.346L200.755 456.641C194.542 460.297 186.477 458.254 182.88 452.125C181.682 450.082 181.028 447.824 181.028 445.567V202.892L102.991 153.218L102.882 397.397L102.773 486.747C106.915 525.777 142.336 554.162 181.899 550.184C192.144 549.109 202.062 545.883 211 540.722L447.942 403.311C468.541 391.376 486.306 372.775 487.396 351.271C489.467 309.983 462.219 290.952 454.59 285.253L378.516 328.799L381.022 330.412Z" fill="white" fill-opacity="0.04"/>
</svg>
