<svg width="555" height="286" viewBox="0 0 555 286" fill="none" xmlns="http://www.w3.org/2000/svg">
<g clip-path="url(#clip0_83_2051)">
<path d="M327.809 275.62C352.539 276.274 375.764 263.849 389.096 242.814L543.496 1.62136C564.892 -31.7293 555.431 -76.4147 522.529 -97.9946C513.713 -103.771 503.713 -107.586 493.284 -109.002L443.717 -31.0753L448.34 -31.0753C455.436 -31.0753 461.243 -25.1899 461.243 -17.9967C461.243 -15.4899 460.49 -12.9832 459.092 -10.9124L341.249 173.17C337.379 179.273 329.422 180.908 323.401 176.985C321.681 175.895 320.283 174.369 319.315 172.625L317.057 168.701L316.95 168.483L273.296 92.6271L215.235 -8.62361L213.73 -11.2394L202.44 -31.0753L112.983 -31.0754L226.202 166.522L269.748 242.596C282.436 262.759 304.262 275.075 327.809 275.62Z" fill="white" fill-opacity="0.04"/>
<path d="M155.025 -113.8C151.477 -120.013 153.627 -128.078 159.756 -131.674C161.691 -132.764 163.949 -133.418 166.207 -133.418L393.613 -133.418C400.71 -133.418 406.516 -127.533 406.516 -120.34C406.516 -117.833 405.763 -115.326 404.473 -113.255L402.215 -109.659L401.893 -109.114L352.218 -31.0774L316.844 24.398L284.803 74.642L273.405 92.6252L316.951 168.482L443.718 -31.0774L493.285 -109.005C510.166 -144.971 495.113 -187.913 459.631 -205.024C450.169 -209.602 439.74 -211.999 429.203 -211.999L132.553 -211.999C107.071 -212.108 83.5238 -198.376 71.0514 -175.924C59.2241 -155.107 62.6648 -130.585 72.6642 -109.332L157.713 -109.223L155.025 -113.8Z" fill="white" fill-opacity="0.04"/>
<path d="M224.587 169.024C220.716 175.127 212.76 176.871 206.739 172.948C205.018 171.858 203.621 170.332 202.653 168.588L98.3578 -11.244C94.7021 -17.4563 96.745 -25.5215 102.874 -29.1182C104.917 -30.317 107.175 -30.971 109.432 -30.971L352.107 -30.971L401.781 -109.007L157.602 -109.116L68.252 -109.225C29.222 -105.084 0.836546 -69.6621 4.81482 -30.0991C5.89001 -19.8541 9.11566 -9.93609 14.2766 -0.998987L151.688 235.943C163.623 256.542 182.224 274.307 203.728 275.397C245.016 277.468 264.047 250.221 269.746 242.592L226.2 166.517L224.587 169.024Z" fill="white" fill-opacity="0.04"/>
</g>
<defs>
<clipPath id="clip0_83_2051">
<rect width="498" height="555" fill="white" transform="translate(555 -212) rotate(90)"/>
</clipPath>
</defs>
</svg>
