<svg width="145" height="372" viewBox="0 0 145 372" fill="none" xmlns="http://www.w3.org/2000/svg">
<mask id="mask0_502_20443" style="mask-type:alpha" maskUnits="userSpaceOnUse" x="0" y="0" width="145" height="372">
<rect width="145" height="372" fill="#D9D9D9"/>
</mask>
<g mask="url(#mask0_502_20443)">
<path d="M141.618 132.192C142.272 107.462 129.847 84.2374 108.812 70.9048L-132.38 -83.4949C-165.731 -104.892 -210.416 -95.4297 -231.996 -62.5284C-237.772 -53.7117 -241.587 -43.7122 -243.004 -33.2827L-165.077 16.2843V11.6609C-165.077 4.56456 -159.191 -1.24156 -151.998 -1.24156C-149.491 -1.24156 -146.985 -0.488918 -144.914 0.908851L39.1685 118.752C45.2719 122.622 46.9067 130.579 42.9831 136.6C41.8932 138.32 40.3674 139.718 38.6236 140.686L34.7 142.944L34.482 143.051L-41.3743 186.705L-142.625 244.766L-145.241 246.271L-165.077 257.561V347.018L32.5202 233.799L108.595 190.253C128.757 177.565 141.073 155.739 141.618 132.192Z" fill="white" fill-opacity="0.04"/>
<path d="M-247.8 304.975C-254.013 308.524 -262.078 306.373 -265.674 300.245C-266.764 298.309 -267.418 296.051 -267.418 293.793V66.387C-267.418 59.2906 -261.533 53.4845 -254.34 53.4845C-251.833 53.4845 -249.326 54.2372 -247.255 55.5274L-243.659 57.7853L-243.114 58.1079L-165.077 107.782L-109.602 143.157L-59.358 175.198L-41.3748 186.595L34.4816 143.049L-165.077 16.2823L-243.005 -33.2847C-278.971 -50.1654 -321.913 -35.1125 -339.024 0.369281C-343.602 9.8311 -345.999 20.2606 -345.999 30.7976V327.447C-346.108 352.93 -332.376 376.477 -309.924 388.949C-289.107 400.776 -264.584 397.336 -243.332 387.336L-243.223 302.287L-247.8 304.975Z" fill="white" fill-opacity="0.04"/>
<path d="M35.0225 235.412C41.1259 239.283 42.8697 247.239 38.9461 253.26C37.8562 254.981 36.3304 256.378 34.5865 257.346L-145.245 361.641C-151.458 365.297 -159.523 363.254 -163.12 357.125C-164.318 355.082 -164.972 352.824 -164.972 350.567V107.892L-243.009 58.2178L-243.118 302.397L-243.227 391.747C-239.085 430.777 -203.664 459.162 -164.101 455.184C-153.856 454.109 -143.938 450.883 -135 445.722L101.942 308.311C122.541 296.376 140.306 277.775 141.396 256.271C143.467 214.983 116.219 195.952 108.59 190.253L32.5157 233.799L35.0225 235.412Z" fill="white" fill-opacity="0.04"/>
</g>
</svg>
