<svg width="20" height="20" viewBox="0 0 20 20" fill="none" xmlns="http://www.w3.org/2000/svg">
<g clip-path="url(#clip0_340_21334)">
<circle cx="10" cy="10" r="10" fill="#FF9A61"/>
<path d="M5.70035 4.87178L3.33168 2.54834C3.19465 2.67123 3.0602 2.79791 2.92902 2.92908C2.78262 3.07549 2.64195 3.22604 2.50586 3.37971L4.87176 5.70041L5.70035 4.87178Z" fill="#FFBD98"/>
<path d="M11 17H9V20C9.66991 20 10.3365 19.9943 11 19.9843V17Z" fill="#FFBD98"/>
<path d="M11 0.0157147C10.3365 0.00566011 9.66991 0 9 0V3H11V0.0157147Z" fill="#FFBD98"/>
<path d="M14.3008 15.1284L16.6638 17.4569C16.8028 17.3324 16.9392 17.2041 17.0721 17.0711C17.2168 16.9265 17.3558 16.7779 17.4904 16.6261L15.1295 14.2998L14.3008 15.1284Z" fill="#FFBD98"/>
<path d="M16.666 10.5859H19.9819C19.993 10.3916 19.9993 10.1963 19.9993 10C19.9993 9.80371 19.993 9.60844 19.9819 9.41406H16.666V10.5859Z" fill="#FFBD98"/>
<path d="M3.33336 9.41406H0.0174609C0.00628906 9.60844 0 9.80371 0 10C0 10.1963 0.00628906 10.3916 0.0174609 10.5859H3.33336V9.41406Z" fill="#FFBD98"/>
<path d="M15.1295 5.70021L17.4741 3.35553C17.3446 3.21021 17.2109 3.06768 17.0721 2.92885C16.9333 2.79006 16.7908 2.65643 16.6454 2.52686L14.3008 4.8715L15.1295 5.70021Z" fill="#FFBD98"/>
<path d="M4.87203 14.2998L2.52734 16.6445C2.65687 16.7898 2.79051 16.9323 2.92934 17.0712C3.06813 17.21 3.21066 17.3436 3.35602 17.4732L5.7007 15.1285L4.87203 14.2998Z" fill="#FFBD98"/>
<circle cx="10" cy="10" r="7.26562" fill="#FFBD98"/>
<path d="M8.53208 13.1919L8.71797 7.72394C8.07321 7.07445 7.06407 6.92992 6.25071 7.40738C5.32895 7.94839 4.98368 9.11984 5.46462 10.0743L7.03559 13.1919H8.53208Z" fill="#EB8348"/>
<path d="M13.7485 7.40738C12.9351 6.92992 11.9259 7.07445 11.2812 7.7239L11.5096 13.1919H12.9636L14.5346 10.0743C15.0155 9.1198 14.6702 7.94836 13.7485 7.40738Z" fill="#EB8348"/>
<path d="M8.53014 13.1918H10.0103L10.3883 9.62563L9.99768 5.88867C9.306 5.88867 8.65436 6.19258 8.20983 6.7225C7.7653 7.25238 7.57932 7.94695 7.70011 8.63109L8.53014 13.1918Z" fill="#DA6727"/>
<path d="M11.51 13.1918L12.2981 8.62805C12.4184 7.94691 12.2324 7.25234 11.7878 6.72246C11.3433 6.19258 10.6917 5.88867 10 5.88867V13.1919H11.51V13.1918Z" fill="#DA6727"/>
</g>
<defs>
<clipPath id="clip0_340_21334">
<rect width="20" height="20" fill="white"/>
</clipPath>
</defs>
</svg>
