<svg width="51" height="57" viewBox="0 0 51 57" fill="none" xmlns="http://www.w3.org/2000/svg">
<path d="M50.1004 23.5236C50.1676 20.9631 48.8911 18.5584 46.7299 17.1779L21.9489 1.19118C18.5223 -1.02425 13.9312 -0.0445632 11.714 3.36208C11.1205 4.27497 10.7286 5.31032 10.583 6.3902L18.5895 11.5224V11.0437C18.5895 10.309 19.1942 9.70778 19.9333 9.70778C20.1908 9.70778 20.4484 9.78571 20.6611 9.93044L39.5744 22.132C40.2015 22.5328 40.3695 23.3566 39.9663 23.98C39.8544 24.1582 39.6976 24.3029 39.5184 24.4031L39.1153 24.6369L39.0929 24.648L31.2992 29.1679L20.8963 35.1797L20.6275 35.3355L18.5895 36.5045V45.767L38.8913 34.0441L46.7075 29.5353C48.7791 28.2216 50.0445 25.9617 50.1004 23.5236Z" fill="url(#paint0_linear_1150_4498)"/>
<path d="M50.1004 23.5236C50.1676 20.9631 48.8911 18.5584 46.7299 17.1779L21.9489 1.19118C18.5223 -1.02425 13.9312 -0.0445632 11.714 3.36208C11.1205 4.27497 10.7286 5.31032 10.583 6.3902L18.5895 11.5224V11.0437C18.5895 10.309 19.1942 9.70778 19.9333 9.70778C20.1908 9.70778 20.4484 9.78571 20.6611 9.93044L39.5744 22.132C40.2015 22.5328 40.3695 23.3566 39.9663 23.98C39.8544 24.1582 39.6976 24.3029 39.5184 24.4031L39.1153 24.6369L39.0929 24.648L31.2992 29.1679L20.8963 35.1797L20.6275 35.3355L18.5895 36.5045V45.767L38.8913 34.0441L46.7075 29.5353C48.7791 28.2216 50.0445 25.9617 50.1004 23.5236Z" fill="url(#paint1_radial_1150_4498)"/>
<path d="M50.1004 23.5236C50.1676 20.9631 48.8911 18.5584 46.7299 17.1779L21.9489 1.19118C18.5223 -1.02425 13.9312 -0.0445632 11.714 3.36208C11.1205 4.27497 10.7286 5.31032 10.583 6.3902L18.5895 11.5224V11.0437C18.5895 10.309 19.1942 9.70778 19.9333 9.70778C20.1908 9.70778 20.4484 9.78571 20.6611 9.93044L39.5744 22.132C40.2015 22.5328 40.3695 23.3566 39.9663 23.98C39.8544 24.1582 39.6976 24.3029 39.5184 24.4031L39.1153 24.6369L39.0929 24.648L31.2992 29.1679L20.8963 35.1797L20.6275 35.3355L18.5895 36.5045V45.767L38.8913 34.0441L46.7075 29.5353C48.7791 28.2216 50.0445 25.9617 50.1004 23.5236Z" fill="url(#paint2_linear_1150_4498)"/>
<path d="M10.0894 41.4139C9.45112 41.7812 8.62247 41.5586 8.25294 40.924C8.14096 40.7236 8.07377 40.4898 8.07377 40.256V16.7102C8.07377 15.9754 8.67846 15.3742 9.41753 15.3742C9.67508 15.3742 9.93263 15.4521 10.1454 15.5857L10.5149 15.8195L10.5709 15.8529L18.5886 20.9963L24.2884 24.659L29.4506 27.9766L31.2983 29.1566L39.092 24.6478L18.5886 11.5223L10.5821 6.39004C6.88679 4.64218 2.47481 6.20078 0.716734 9.87461C0.246421 10.8543 6.61617e-05 11.9342 6.61617e-05 13.0252V43.7406C-0.0111318 46.3791 1.39981 48.8172 3.70658 50.1086C5.84539 51.3332 8.36492 50.9769 10.5485 49.9416L10.5597 41.1355L10.0894 41.4139Z" fill="url(#paint3_linear_1150_4498)"/>
<path d="M10.1001 41.4139C9.46184 41.7812 8.6332 41.5586 8.26367 40.924C8.15169 40.7236 8.0845 40.4898 8.0845 40.256V16.7102C8.0845 15.9754 8.67799 15.3742 9.42825 15.3742C9.6858 15.3742 9.94335 15.4521 10.1561 15.5857L10.5256 15.8195L10.5816 15.8641L18.5993 21.0074L24.2879 24.6701L29.4389 27.9877L31.2866 29.1789L39.0803 24.6701L18.5769 11.5334L10.5928 6.39004C6.89752 4.64218 2.48555 6.20078 0.727474 9.8746C0.257162 10.8654 0.0108083 11.9342 0.0108083 13.0363V43.7517C-0.000389558 46.3902 1.41055 48.8283 3.71732 50.1197C5.85612 51.3443 8.36445 50.9881 10.5592 49.9527L10.5704 41.1467L10.1001 41.4139Z" fill="url(#paint4_linear_1150_4498)"/>
<path d="M39.1479 34.2111C39.775 34.6119 39.9541 35.4357 39.551 36.0592C39.439 36.2373 39.2822 36.382 39.1031 36.4822L20.6265 47.2811C19.9882 47.6596 19.1596 47.448 18.79 46.8135C18.6669 46.602 18.5997 46.3682 18.5997 46.1344V21.0076L10.582 15.8643L10.5708 41.1469L10.5596 50.3982C10.9851 54.4395 14.6244 57.3785 18.6893 56.9666C19.7419 56.8553 20.7609 56.5213 21.6791 55.9869L46.0234 41.7592C48.1398 40.5234 49.9651 38.5975 50.0771 36.3709C50.2898 32.0959 47.4903 30.1254 46.7065 29.5354L38.8903 34.0441L39.1479 34.2111Z" fill="url(#paint5_linear_1150_4498)"/>
<path d="M39.1479 34.2111C39.775 34.6119 39.9541 35.4357 39.551 36.0592C39.439 36.2373 39.2822 36.382 39.1031 36.4822L20.6265 47.2811C19.9882 47.6596 19.1596 47.448 18.79 46.8135C18.6669 46.602 18.5997 46.3682 18.5997 46.1344V21.0076L10.582 15.8643L10.5708 41.1469L10.5596 50.3982C10.9851 54.4395 14.6244 57.3785 18.6893 56.9666C19.7419 56.8553 20.7609 56.5213 21.6791 55.9869L46.0234 41.7592C48.1398 40.5234 49.9651 38.5975 50.0771 36.3709C50.2898 32.0959 47.4903 30.1254 46.7065 29.5354L38.8903 34.0441L39.1479 34.2111Z" fill="url(#paint6_linear_1150_4498)"/>
<path opacity="0.7" d="M39.1479 34.2111C39.775 34.6119 39.9541 35.4357 39.551 36.0592C39.439 36.2373 39.2822 36.382 39.1031 36.4822L20.6265 47.2811C19.9882 47.6596 19.1596 47.448 18.79 46.8135C18.6669 46.602 18.5997 46.3682 18.5997 46.1344V21.0076L10.582 15.8643L10.5708 41.1469L10.5596 50.3982C10.9851 54.4395 14.6244 57.3785 18.6893 56.9666C19.7419 56.8553 20.7609 56.5213 21.6791 55.9869L46.0234 41.7592C48.1398 40.5234 49.9651 38.5975 50.0771 36.3709C50.2898 32.0959 47.4903 30.1254 46.7065 29.5354L38.8903 34.0441L39.1479 34.2111Z" fill="url(#paint7_linear_1150_4498)"/>
<defs>
<linearGradient id="paint0_linear_1150_4498" x1="48.5839" y1="15.3971" x2="10.804" y2="24.6959" gradientUnits="userSpaceOnUse">
<stop offset="0.08" stop-color="#FFD15F"/>
<stop offset="0.14" stop-color="#FCCC59"/>
<stop offset="0.21" stop-color="#F4BC50"/>
<stop offset="0.28" stop-color="#E5A643"/>
<stop offset="0.36" stop-color="#D4822F"/>
<stop offset="0.43" stop-color="#BF621A"/>
<stop offset="0.47" stop-color="#AE581B"/>
<stop offset="0.56" stop-color="#7C411D"/>
<stop offset="0.61" stop-color="#69381C"/>
<stop offset="0.66" stop-color="#542E18"/>
<stop offset="0.74" stop-color="#422719"/>
<stop offset="0.79" stop-color="#3A2317"/>
<stop offset="1" stop-color="#020303"/>
</linearGradient>
<radialGradient id="paint1_radial_1150_4498" cx="0" cy="0" r="1" gradientUnits="userSpaceOnUse" gradientTransform="translate(17.283 7.92689) scale(40.9519 40.7219)">
<stop stop-color="#EF7A25"/>
<stop offset="0.35" stop-color="#F1851C"/>
<stop offset="0.85" stop-color="#F9B24C" stop-opacity="0"/>
</radialGradient>
<linearGradient id="paint2_linear_1150_4498" x1="39.4813" y1="5.27364" x2="10.1608" y2="37.8884" gradientUnits="userSpaceOnUse">
<stop stop-color="#FBC05E" stop-opacity="0"/>
<stop offset="0.49" stop-color="#3A2317" stop-opacity="0.3"/>
<stop offset="1" stop-color="#020303"/>
</linearGradient>
<linearGradient id="paint3_linear_1150_4498" x1="20.8497" y1="13.6856" x2="10.5167" y2="51.089" gradientUnits="userSpaceOnUse">
<stop stop-color="#F8AE2A"/>
<stop offset="0.38" stop-color="#B46A2B"/>
<stop offset="0.46" stop-color="#985E2B"/>
<stop offset="0.56" stop-color="#7C4E2C"/>
<stop offset="0.67" stop-color="#593724"/>
<stop offset="0.91" stop-color="#020303"/>
</linearGradient>
<linearGradient id="paint4_linear_1150_4498" x1="0.0051982" y1="28.2817" x2="39.0977" y2="28.2817" gradientUnits="userSpaceOnUse">
<stop stop-color="#1E201D" stop-opacity="0"/>
<stop offset="0.26" stop-color="#EE7512" stop-opacity="0"/>
<stop offset="0.27" stop-color="#EF7816" stop-opacity="0.03"/>
<stop offset="0.37" stop-color="#F59C49" stop-opacity="0.26"/>
<stop offset="0.47" stop-color="#F6B878" stop-opacity="0.45"/>
<stop offset="0.56" stop-color="#FBD2A0" stop-opacity="0.61"/>
<stop offset="0.66" stop-color="#FDE5BD" stop-opacity="0.74"/>
<stop offset="0.75" stop-color="#FDF0D2" stop-opacity="0.83"/>
<stop offset="0.83" stop-color="#FEF9E3" stop-opacity="0.88"/>
<stop offset="0.91" stop-color="#FEFCE7" stop-opacity="0.9"/>
</linearGradient>
<linearGradient id="paint5_linear_1150_4498" x1="31.6251" y1="44.1622" x2="5.54131" y2="15.0742" gradientUnits="userSpaceOnUse">
<stop stop-color="#F49924"/>
<stop offset="0.23" stop-color="#B46A2B"/>
<stop offset="0.37" stop-color="#7C4E2C"/>
<stop offset="0.65" stop-color="#1B1716"/>
<stop offset="0.89" stop-color="#030304"/>
<stop offset="1" stop-color="#020303"/>
</linearGradient>
<linearGradient id="paint6_linear_1150_4498" x1="13.0846" y1="36.4344" x2="53.1691" y2="36.2914" gradientUnits="userSpaceOnUse">
<stop offset="0.18" stop-color="#FECE5C" stop-opacity="0"/>
<stop offset="1" stop-color="#FDCB67"/>
</linearGradient>
<linearGradient id="paint7_linear_1150_4498" x1="9.04747" y1="36.5966" x2="49.1305" y2="35.3137" gradientUnits="userSpaceOnUse">
<stop offset="0.18" stop-color="#EE7512" stop-opacity="0"/>
<stop offset="0.36" stop-color="#F8BB82" stop-opacity="0.37"/>
<stop offset="0.51" stop-color="#FACA9E" stop-opacity="0.56"/>
<stop offset="0.67" stop-color="#FCDAB9" stop-opacity="0.75"/>
<stop offset="0.82" stop-color="#FEE6D0" stop-opacity="0.89"/>
<stop offset="0.93" stop-color="#FEEDDB" stop-opacity="0.97"/>
<stop offset="1" stop-color="#FFF0DF"/>
</linearGradient>
</defs>
</svg>
