<svg width="18" height="18" viewBox="0 0 18 18" fill="none" xmlns="http://www.w3.org/2000/svg">
<path d="M10.4958 13.4306V17.4715C10.4958 17.6508 10.4008 17.8196 10.2426 17.9252C10.1055 18.0096 9.92609 18.0306 9.73621 17.9463L7.62613 16.8913C7.44673 16.7963 7.33068 16.6169 7.33068 16.4165V13.4306L8.91324 12.3159C9.05435 12.2177 9.24515 12.2326 9.36931 12.3516L10.4958 13.4306Z" fill="url(#paint0_linear_346_17379)"/>
<path d="M16.6678 7.26216L15.4545 8.47551C15.4545 8.47551 14.2939 9.04518 13.2916 9.53055H5.47428C5.41808 9.53055 5.36229 9.52108 5.30925 9.50253L2.37196 8.47551L1.15868 7.26216C1.00037 7.11447 0.958217 6.89291 1.04259 6.69249C1.12704 6.49203 1.31692 6.36543 1.52796 6.36543H16.2986C16.5096 6.36543 16.6995 6.49203 16.7839 6.69249C16.8682 6.89295 16.8261 7.11447 16.6678 7.26216Z" fill="url(#paint1_linear_346_17379)"/>
<path d="M15.4545 8.47551L10.4958 13.4306H7.33068L2.37196 8.47551H15.4545Z" fill="url(#paint2_linear_346_17379)"/>
<path d="M9.01297 12.2382C9.09685 12.1847 9.20645 12.1955 9.2783 12.2643L10.3417 13.283C10.4402 13.3773 10.4958 13.5077 10.4958 13.644L10.4958 17.4715C10.4958 17.6508 10.4008 17.8196 10.2426 17.9252C10.1055 18.0096 9.92612 18.0306 9.73625 17.9463L9.18359 17.6605C9.01753 17.5747 8.91324 17.4034 8.91324 17.2164V12.4201C8.91324 12.3464 8.95084 12.2778 9.01297 12.2382Z" fill="url(#paint3_linear_346_17379)"/>
<path d="M16.6678 7.26216L15.4545 8.47551C15.4545 8.47551 14.2939 9.04518 13.2916 9.53055H9.41324C9.13709 9.53055 8.91324 9.30669 8.91324 9.03055V6.86543C8.91324 6.58929 9.13709 6.36543 9.41324 6.36543H16.2986C16.5096 6.36543 16.6995 6.49203 16.7839 6.69249C16.8682 6.89295 16.8261 7.11447 16.6678 7.26216Z" fill="url(#paint4_linear_346_17379)"/>
<path d="M15.4545 8.47551L10.4958 13.4306H9.41324C9.13709 13.4306 8.91324 13.2068 8.91324 12.9306V8.97551C8.91324 8.69937 9.13709 8.47551 9.41324 8.47551H15.4545Z" fill="url(#paint5_linear_346_17379)"/>
<path d="M4.69308 5.2752C3.82043 5.2752 3.11052 4.56529 3.11052 3.69264C3.11052 2.81999 3.82043 2.11008 4.69308 2.11008C5.56573 2.11008 6.27564 2.81999 6.27564 3.69264C6.27564 4.56529 5.56573 5.2752 4.69308 5.2752Z" fill="url(#paint6_linear_346_17379)"/>
<path d="M13.661 5.2752C13.0793 5.2752 12.6059 4.80175 12.6059 4.22016C12.6059 3.63857 13.0794 3.16512 13.661 3.16512C14.2425 3.16512 14.716 3.63857 14.716 4.22016C14.716 4.80175 14.2425 5.2752 13.661 5.2752Z" fill="url(#paint7_linear_346_17379)"/>
<path d="M9.44076 0C9.26146 0 9.08202 0.0211289 8.91324 0.0738633C8.00589 0.30593 7.33068 1.1289 7.33068 2.11008C7.33068 3.09126 8.00592 3.91423 8.91324 4.14633C9.08202 4.1991 9.26143 4.22019 9.44076 4.22019C10.6013 4.22019 11.5508 3.27062 11.5508 2.11011C11.5508 0.949606 10.6013 0 9.44076 0Z" fill="url(#paint8_linear_346_17379)"/>
<path d="M9.44076 4.22019C9.26143 4.22019 9.08202 4.19907 8.91324 4.14633V0.0738633C9.08202 0.0210938 9.26146 0 9.44076 0C10.6013 0 11.5508 0.949606 11.5508 2.11011C11.5508 3.27062 10.6013 4.22019 9.44076 4.22019Z" fill="url(#paint9_linear_346_17379)"/>
<defs>
<linearGradient id="paint0_linear_346_17379" x1="8.91323" y1="0" x2="8.91323" y2="18" gradientUnits="userSpaceOnUse">
<stop stop-color="#F8AD29"/>
<stop offset="1" stop-color="#E47D22"/>
</linearGradient>
<linearGradient id="paint1_linear_346_17379" x1="8.91323" y1="0" x2="8.91323" y2="18" gradientUnits="userSpaceOnUse">
<stop stop-color="#F8AD29"/>
<stop offset="1" stop-color="#E47D22"/>
</linearGradient>
<linearGradient id="paint2_linear_346_17379" x1="8.91323" y1="0" x2="8.91323" y2="18" gradientUnits="userSpaceOnUse">
<stop stop-color="#F8AD29"/>
<stop offset="1" stop-color="#E47D22"/>
</linearGradient>
<linearGradient id="paint3_linear_346_17379" x1="8.91323" y1="0" x2="8.91323" y2="18" gradientUnits="userSpaceOnUse">
<stop stop-color="#F8AD29"/>
<stop offset="1" stop-color="#E47D22"/>
</linearGradient>
<linearGradient id="paint4_linear_346_17379" x1="8.91323" y1="0" x2="8.91323" y2="18" gradientUnits="userSpaceOnUse">
<stop stop-color="#F8AD29"/>
<stop offset="1" stop-color="#E47D22"/>
</linearGradient>
<linearGradient id="paint5_linear_346_17379" x1="8.91323" y1="0" x2="8.91323" y2="18" gradientUnits="userSpaceOnUse">
<stop stop-color="#F8AD29"/>
<stop offset="1" stop-color="#E47D22"/>
</linearGradient>
<linearGradient id="paint6_linear_346_17379" x1="8.91323" y1="0" x2="8.91323" y2="18" gradientUnits="userSpaceOnUse">
<stop stop-color="#F8AD29"/>
<stop offset="1" stop-color="#E47D22"/>
</linearGradient>
<linearGradient id="paint7_linear_346_17379" x1="8.91323" y1="0" x2="8.91323" y2="18" gradientUnits="userSpaceOnUse">
<stop stop-color="#F8AD29"/>
<stop offset="1" stop-color="#E47D22"/>
</linearGradient>
<linearGradient id="paint8_linear_346_17379" x1="8.91323" y1="0" x2="8.91323" y2="18" gradientUnits="userSpaceOnUse">
<stop stop-color="#F8AD29"/>
<stop offset="1" stop-color="#E47D22"/>
</linearGradient>
<linearGradient id="paint9_linear_346_17379" x1="8.91323" y1="0" x2="8.91323" y2="18" gradientUnits="userSpaceOnUse">
<stop stop-color="#F8AD29"/>
<stop offset="1" stop-color="#E47D22"/>
</linearGradient>
</defs>
</svg>
