<svg width="16" height="15" viewBox="0 0 16 15" fill="none" xmlns="http://www.w3.org/2000/svg">
<path fill-rule="evenodd" clip-rule="evenodd" d="M14.6172 6.60552H1.38277C1.02682 6.60552 0.738238 6.31694 0.738281 5.96103C0.738281 5.60508 1.02686 5.3165 1.38281 5.3165H2.49816C2.51883 5.21789 2.5395 5.11804 2.56036 5.01725C2.86258 3.55712 3.20607 1.89759 4.21322 0.89044C5.18458 -0.0809158 5.85682 0.387231 6.68264 0.962413C7.06361 1.22775 7.50043 1.53197 8.00183 1.53197C8.51712 1.53197 8.96696 1.22921 9.35767 0.966237C10.1854 0.409188 10.8565 -0.0424586 11.7895 0.890483C12.6794 1.78048 13.0165 3.26608 13.3248 4.62498C13.3782 4.86053 13.4308 5.09228 13.4853 5.31645H14.6172C14.9732 5.31645 15.2617 5.60503 15.2617 5.96099C15.2617 6.31694 14.9732 6.60552 14.6172 6.60552ZM13.3246 9.08978C13.3246 12.0195 10.9299 14.4142 8.00017 14.4142C5.07047 14.4142 2.67578 12.0195 2.67578 9.08978V7.8772H13.3246V9.08978Z" fill="white"/>
</svg>
