<svg width="16" height="16" viewBox="0 0 16 16" fill="none" xmlns="http://www.w3.org/2000/svg">
<g clip-path="url(#clip0_340_21645)">
<path d="M8.35218 4.00892C9.32118 4.00892 10.1067 3.22342 10.1067 2.25446C10.1067 1.2855 9.32118 0.5 8.35218 0.5C7.38318 0.5 6.59766 1.2855 6.59766 2.25446C6.59766 3.22342 7.38318 4.00892 8.35218 4.00892Z" fill="#50BF62"/>
<path d="M8.35143 15.5001C8.93276 15.5001 9.40403 15.0289 9.40403 14.4476C9.40403 13.8663 8.93276 13.395 8.35143 13.395C7.77009 13.395 7.29883 13.8663 7.29883 14.4476C7.29883 15.0289 7.77009 15.5001 8.35143 15.5001Z" fill="#50BF62"/>
<path d="M4.04012 5.6187C4.91229 5.6187 5.61931 4.9117 5.61931 4.03958C5.61931 3.16745 4.91229 2.46045 4.04012 2.46045C3.16796 2.46045 2.46094 3.16745 2.46094 4.03958C2.46094 4.9117 3.16796 5.6187 4.04012 5.6187Z" fill="#50BF62"/>
<path d="M12.6624 13.5381C13.1469 13.5381 13.5397 13.1454 13.5397 12.6609C13.5397 12.1764 13.1469 11.7837 12.6624 11.7837C12.1779 11.7837 11.7852 12.1764 11.7852 12.6609C11.7852 13.1454 12.1779 13.5381 12.6624 13.5381Z" fill="#50BF62"/>
<path d="M2.25484 9.75421C3.02985 9.75421 3.65812 9.12596 3.65812 8.35098C3.65812 7.576 3.02985 6.94775 2.25484 6.94775C1.47983 6.94775 0.851562 7.576 0.851562 8.35098C0.851562 9.12596 1.47983 9.75421 2.25484 9.75421Z" fill="#50BF62"/>
<path d="M14.4474 9.05207C14.8348 9.05207 15.1488 8.73807 15.1488 8.35074C15.1488 7.96341 14.8348 7.64941 14.4474 7.64941C14.0601 7.64941 13.7461 7.96341 13.7461 8.35074C13.7461 8.73807 14.0601 9.05207 14.4474 9.05207Z" fill="#50BF62"/>
<path d="M3.17243 11.7942C2.69252 12.2741 2.69252 13.0505 3.17243 13.5304C3.65176 14.0103 4.4294 14.0103 4.90874 13.5304C5.38864 13.0505 5.38864 12.2741 4.90874 11.7942C4.4294 11.3137 3.65233 11.3092 3.17243 11.7942Z" fill="#50BF62"/>
<path d="M12.6627 4.56566C12.9532 4.56566 13.1888 4.33017 13.1888 4.03967C13.1888 3.74917 12.9532 3.51367 12.6627 3.51367C12.3722 3.51367 12.1367 3.74917 12.1367 4.03967C12.1367 4.33017 12.3722 4.56566 12.6627 4.56566Z" fill="#50BF62"/>
</g>
<defs>
<clipPath id="clip0_340_21645">
<rect width="15" height="15" fill="white" transform="translate(0.5 0.5)"/>
</clipPath>
</defs>
</svg>
