<svg width="19" height="18" viewBox="0 0 19 18" fill="none" xmlns="http://www.w3.org/2000/svg">
<path d="M9.1764 6.63741C9.1764 7.40415 9.1764 8.1709 9.1764 8.93765C9.1764 8.99263 9.16723 9.05067 9.19473 9.1026C9.18862 9.18203 9.21306 9.25534 9.24667 9.32255C9.40556 9.65552 9.67443 9.81742 10.038 9.81742C11.0952 9.82047 12.1555 9.81742 13.2126 9.81742C13.2615 9.81742 13.3135 9.8052 13.3623 9.79909C13.7657 9.76854 14.0865 9.41419 14.0834 8.99874C14.0834 8.58329 13.7626 8.232 13.3562 8.20145C13.289 8.1709 13.2157 8.18312 13.1454 8.18312C12.4121 8.18312 11.6819 8.18006 10.9486 8.18617C10.8355 8.18617 10.8019 8.15563 10.8049 8.0426C10.8111 7.3675 10.808 6.68934 10.808 6.01423C10.808 5.95008 10.8202 5.88288 10.7897 5.81873C10.753 5.40633 10.4047 5.09169 9.98609 5.09475C9.5736 5.0978 9.22528 5.41244 9.19167 5.80956C9.16418 5.8615 9.17334 5.91954 9.17334 5.97452C9.17334 6.16086 9.17334 6.3472 9.17334 6.53354C9.17334 6.57326 9.17029 6.60686 9.1764 6.63741Z" fill="white" fill-opacity="0.6"/>
<path d="M16.833 7.53833C16.8269 7.52611 16.8177 7.51084 16.8147 7.49862C16.6894 6.76242 16.4022 6.08732 16.0172 5.45193C15.7575 4.98455 15.4397 4.55688 15.0547 4.18115C14.9906 4.08645 14.9111 4.01008 14.8195 3.94593C14.4436 3.56408 14.0189 3.24333 13.5484 2.98368C13.4415 2.9012 13.3223 2.84316 13.2001 2.78512C12.6959 2.51935 12.1704 2.31774 11.6113 2.1986C11.5838 2.18944 11.5532 2.17722 11.5257 2.16806C10.6855 1.98783 9.8391 1.94506 8.98663 2.07641C8.45499 2.14667 7.94168 2.28414 7.44364 2.4827C7.14421 2.60183 6.84172 2.71486 6.57284 2.9012C6.24591 3.07227 5.93426 3.26777 5.65621 3.51215C5.28345 3.79625 4.93818 4.11394 4.64792 4.48357C4.34849 4.82876 4.08572 5.19533 3.87795 5.60161C3.68546 5.91931 3.52963 6.25533 3.41963 6.60968C3.27297 6.96709 3.17214 7.33672 3.1202 7.72162C3.07742 7.80715 3.08048 7.90185 3.06826 7.99655C3.0652 8.03626 3.05909 8.07292 3.05604 8.11263C2.99493 8.41199 2.99187 8.71747 2.99493 9.02295C3.00104 9.45978 3.34325 9.80191 3.78017 9.81108C4.22321 9.82329 4.58681 9.49033 4.61431 9.05044C4.62042 8.95574 4.61431 8.85799 4.61431 8.76024C4.64486 8.36006 4.71514 7.96294 4.80069 7.56888C4.91985 7.20231 5.06651 6.84795 5.22539 6.49971C5.43316 6.09954 5.71121 5.74824 5.99231 5.4C6.30396 5.07619 6.64312 4.78293 7.00977 4.52022C7.33059 4.32472 7.66669 4.1506 8.0089 3.99786C8.75748 3.72293 9.5305 3.59463 10.328 3.62823C10.8932 3.67711 11.4432 3.80236 11.9779 3.99786C12.1185 4.06201 12.259 4.12616 12.4026 4.19031C12.9434 4.47746 13.4353 4.8257 13.8631 5.26559C14.2542 5.66882 14.5628 6.13008 14.8256 6.62496C15.1403 7.29395 15.3236 7.99655 15.3755 8.73274C15.3908 9.23373 15.3389 9.7286 15.2472 10.2204C15.1189 10.6878 14.9539 11.1399 14.7339 11.5737C14.5109 11.9525 14.2573 12.3099 13.97 12.6398C13.6523 12.9697 13.307 13.263 12.9281 13.5196C12.5248 13.7731 12.094 13.9717 11.6449 14.1275C11.1865 14.268 10.7191 14.3443 10.2424 14.3841C9.48773 14.3963 8.75137 14.2924 8.04862 14.0144C7.77668 13.9075 7.51086 13.7853 7.25115 13.6173C7.29698 13.5868 7.32753 13.5684 7.35503 13.5501C7.65752 13.3424 7.78585 12.9819 7.68196 12.6398C7.57502 12.2854 7.27254 12.0563 6.89366 12.0624C6.30396 12.0716 5.71426 12.0838 5.12457 12.0991C4.85874 12.1083 4.62959 12.1968 4.4707 12.429C4.33321 12.5817 4.29349 12.7681 4.2996 12.9666C4.31182 13.4951 4.3271 14.0236 4.34237 14.5521C4.35765 14.9706 4.62042 15.276 5.02374 15.3494C5.39039 15.4166 5.7601 15.2027 5.90981 14.8301C5.94953 14.7323 5.97703 14.7354 6.05342 14.7873C6.56062 15.1386 7.10754 15.4166 7.69419 15.6151C8.22278 15.7984 8.76664 15.9298 9.32579 15.9634C9.55189 16.0092 9.78105 16 10.0102 16C10.6274 16 11.2354 15.9298 11.8312 15.7495C12.2804 15.6457 12.7082 15.4807 13.1145 15.2638C13.5331 15.0714 13.9242 14.827 14.2786 14.5337C14.3245 14.494 14.3642 14.4513 14.4131 14.4177C14.7461 14.1855 15.0242 13.8983 15.2808 13.5868C15.5772 13.263 15.8369 12.9117 16.0416 12.5176C16.448 11.8455 16.723 11.1246 16.8635 10.3518C16.8972 10.1899 16.9399 10.031 16.9338 9.86301C16.9735 9.71638 16.9491 9.56364 16.9674 9.41396C17.0377 8.77551 16.9735 8.15539 16.833 7.53833Z" fill="white" fill-opacity="0.6"/>
</svg>
