<svg width="18" height="19" viewBox="0 0 18 19" fill="none" xmlns="http://www.w3.org/2000/svg">
<g clip-path="url(#clip0_340_26611)">
<path d="M14.5929 5.18995C14.5689 4.85738 14.2491 4.61286 13.9436 4.74648C12.8317 5.23284 12.2439 6.02656 11.9747 6.83201C11.8172 7.30319 11.1155 7.53332 10.9042 7.08371C10.1566 5.4934 10.1242 3.66516 10.1246 1.33483C10.1247 0.985344 9.77266 0.744737 9.45777 0.896342C5.25792 2.91838 5.57172 7.44307 5.63384 9.79531C5.64443 10.1963 5.22469 10.3665 5.0018 10.033C4.46601 9.23137 4.18792 8.20489 4.05247 7.5258C3.98334 7.17924 3.59668 6.98143 3.32974 7.21301C2.23584 8.16203 1.6875 9.87223 1.6875 11.2988C1.6875 15.3376 4.96126 18.6113 9.00001 18.6113C13.0388 18.6113 16.3125 15.3376 16.3125 11.2988C16.3125 9.06977 14.7925 7.95607 14.5929 5.18995Z" fill="url(#paint0_linear_340_26611)"/>
</g>
<defs>
<linearGradient id="paint0_linear_340_26611" x1="9.00001" y1="0.611328" x2="9.00001" y2="18.6113" gradientUnits="userSpaceOnUse">
<stop stop-color="#F8AD29"/>
<stop offset="1" stop-color="#E47D22"/>
</linearGradient>
<clipPath id="clip0_340_26611">
<rect width="18" height="18" fill="white" transform="translate(0 0.611328)"/>
</clipPath>
</defs>
</svg>
