<svg width="24" height="24" viewBox="0 0 24 24" fill="none" xmlns="http://www.w3.org/2000/svg">
<path fill-rule="evenodd" clip-rule="evenodd" d="M11.3077 17.6154C14.7913 17.6154 17.6154 14.7913 17.6154 11.3077C17.6154 7.82405 14.7913 5 11.3077 5C7.82405 5 5 7.82405 5 11.3077C5 14.7913 7.82405 17.6154 11.3077 17.6154ZM11.3077 19.6154C15.8959 19.6154 19.6154 15.8959 19.6154 11.3077C19.6154 6.71948 15.8959 3 11.3077 3C6.71948 3 3 6.71948 3 11.3077C3 15.8959 6.71948 19.6154 11.3077 19.6154Z" fill="white"/>
<path fill-rule="evenodd" clip-rule="evenodd" d="M16.1405 16.1391C16.5311 15.7486 17.1642 15.7486 17.5548 16.1391L21.7086 20.2929C22.0991 20.6835 22.0991 21.3166 21.7086 21.7071C21.3181 22.0977 20.6849 22.0977 20.2944 21.7071L16.1405 17.5533C15.75 17.1628 15.75 16.5296 16.1405 16.1391Z" fill="white"/>
</svg>
