<svg width="24" height="24" viewBox="0 0 24 24" fill="none" xmlns="http://www.w3.org/2000/svg">
<g clip-path="url(#clip0_919_10026)">
<path d="M12.0062 24.0124C18.637 24.0124 24.0124 18.637 24.0124 12.0062C24.0124 5.37536 18.637 0 12.0062 0C5.37536 0 0 5.37536 0 12.0062C0 18.637 5.37536 24.0124 12.0062 24.0124Z" fill="url(#paint0_linear_919_10026)"/>
<path d="M16.5869 7.11373C16.5869 7.11373 17.8361 6.62793 17.732 7.80773C17.6973 8.29353 17.385 9.99383 17.1421 11.8329L16.3093 17.2808C16.3093 17.2808 16.2399 18.0789 15.6153 18.2177C14.9907 18.3565 14.0538 17.7319 13.8803 17.5931C13.7415 17.489 11.2778 15.9275 10.4103 15.1641C10.1674 14.9559 9.88981 14.5395 10.445 14.0537L14.0885 10.5837C14.5049 10.1673 14.9213 9.19573 13.1863 10.3755L8.32831 13.672C8.32831 13.672 7.77311 14.019 6.73211 13.7067L4.47661 13.0127C4.47661 13.0127 3.64381 12.4922 5.06651 11.9717C8.53651 10.3408 12.8046 8.67523 16.5869 7.11373Z" fill="white"/>
</g>
<defs>
<linearGradient id="paint0_linear_919_10026" x1="15.962" y1="3.817" x2="10.063" y2="18.044" gradientUnits="userSpaceOnUse">
<stop stop-color="#2AABEE"/>
<stop offset="1" stop-color="#229ED9"/>
</linearGradient>
<clipPath id="clip0_919_10026">
<rect width="24" height="24" fill="white"/>
</clipPath>
</defs>
</svg>
