<svg width="24" height="24" viewBox="0 0 24 24" fill="none" xmlns="http://www.w3.org/2000/svg">
<g clip-path="url(#clip0_919_10033)">
<path d="M19.5145 4.1547C18.0232 3.46426 16.4288 2.96248 14.7618 2.67676C14.557 3.04304 14.3179 3.5357 14.153 3.9276C12.3809 3.66388 10.6251 3.66388 8.88568 3.9276C8.72081 3.5357 8.4762 3.04304 8.26964 2.67676C6.60085 2.96248 5.00454 3.4661 3.51332 4.15835C0.505509 8.65619 -0.309857 13.0423 0.0978269 17.3662C2.09276 18.8404 4.02609 19.736 5.9268 20.322C6.39609 19.6828 6.81464 19.0034 7.17521 18.2873C6.48849 18.0291 5.83077 17.7105 5.20929 17.3405C5.37417 17.2197 5.53544 17.0933 5.69125 16.9633C9.4818 18.7177 13.6003 18.7177 17.3456 16.9633C17.5032 17.0933 17.6645 17.2197 17.8275 17.3405C17.2042 17.7123 16.5447 18.0309 15.858 18.2892C16.2186 19.0034 16.6353 19.6847 17.1064 20.3238C19.0089 19.7378 20.9441 18.8423 22.939 17.3662C23.4174 12.3537 22.1218 8.00788 19.5145 4.1547ZM7.69162 14.707C6.55374 14.707 5.62058 13.6558 5.62058 12.3757C5.62058 11.0956 6.53381 10.0425 7.69162 10.0425C8.84946 10.0425 9.78259 11.0937 9.76266 12.3757C9.76446 13.6558 8.84946 14.707 7.69162 14.707ZM15.3452 14.707C14.2073 14.707 13.2742 13.6558 13.2742 12.3757C13.2742 11.0956 14.1874 10.0425 15.3452 10.0425C16.503 10.0425 17.4362 11.0937 17.4163 12.3757C17.4163 13.6558 16.503 14.707 15.3452 14.707Z" fill="#5865F2"/>
</g>
<defs>
<clipPath id="clip0_919_10033">
<rect width="24" height="24" fill="white"/>
</clipPath>
</defs>
</svg>
