<svg width="24" height="24" viewBox="0 0 24 24" fill="none" xmlns="http://www.w3.org/2000/svg">
<g clip-path="url(#clip0_919_10023)">
<path fill-rule="evenodd" clip-rule="evenodd" d="M23.9983 5.25028C23.1137 5.63055 22.1646 5.88873 21.169 6.00386C22.1861 5.41076 22.9669 4.46878 23.3322 3.34888C22.3795 3.90011 21.3266 4.29783 20.2056 4.51414C19.3067 3.58263 18.0281 3 16.6099 3C13.8916 3 11.6855 5.1491 11.6855 7.7971C11.6855 8.17389 11.7284 8.54021 11.8144 8.88909C7.72085 8.69023 4.09289 6.77837 1.6647 3.87569C1.2421 4.58391 0.998561 5.40727 0.998561 6.28645C0.998561 7.95061 1.86884 9.41939 3.19038 10.2776C2.38456 10.2532 1.62531 10.0369 0.959166 9.67756C0.959166 9.69849 0.959166 9.71594 0.959166 9.73687C0.959166 12.0604 2.65675 14.0002 4.90945 14.4398C4.49759 14.5479 4.06066 14.6072 3.61298 14.6072C3.29424 14.6072 2.98624 14.5758 2.6854 14.52C3.31215 16.4249 5.1315 17.8134 7.28392 17.8518C5.59708 19.1392 3.47689 19.9067 1.16689 19.9067C0.769352 19.9067 0.378979 19.8823 -0.0078125 19.8404C2.16968 21.2011 4.75903 21.9965 7.54178 21.9965C16.5991 21.9965 21.5522 14.6875 21.5522 8.34833C21.5522 8.139 21.5486 7.93316 21.5379 7.72732C22.5013 7.0505 23.3358 6.20621 23.9947 5.2433L23.9983 5.25028Z" fill="#41ABE1"/>
</g>
<defs>
<clipPath id="clip0_919_10023">
<rect width="24" height="24" fill="white"/>
</clipPath>
</defs>
</svg>
