<svg width="24" height="24" viewBox="0 0 24 24" fill="none" xmlns="http://www.w3.org/2000/svg">
<path d="M22.3017 23.6037C23.0118 23.6037 23.5781 23.0522 23.5781 22.38V2.62016C23.5781 1.93938 23.0028 1.39648 22.3017 1.39648H1.69047C0.989344 1.39648 0.414062 1.948 0.414062 2.62016V22.38C0.414062 23.0608 0.989344 23.6037 1.69047 23.6037H22.3017Z" fill="#157DC3"/>
<path d="M16.3943 23.6035V15.0033H19.4055L19.8549 11.6511H16.3943V9.51399C16.3943 8.54022 16.6729 7.88529 18.1291 7.88529H19.9808V4.8778C19.6572 4.83471 18.5605 4.74854 17.2841 4.74854C14.6145 4.74854 12.7898 6.3083 12.7898 9.17791V11.6511H9.76953V15.0033H12.7898V23.6035H16.3943Z" fill="white"/>
</svg>
