<svg width="16" height="49" viewBox="0 0 16 49" fill="none" xmlns="http://www.w3.org/2000/svg">
<path d="M7.99381 15.088C5.99915 15.088 4.29781 14.4133 2.88981 13.064C1.48181 11.656 0.777813 9.896 0.777813 7.784C0.777813 5.61333 1.45248 3.85333 2.80181 2.504C4.20981 1.15466 5.94048 0.479998 7.99381 0.479998C10.0471 0.479998 11.7485 1.15466 13.0978 2.504C14.5058 3.85333 15.2098 5.61333 15.2098 7.784C15.2098 9.896 14.5058 11.656 13.0978 13.064C11.6898 14.4133 9.98848 15.088 7.99381 15.088ZM7.99381 48.616C5.99915 48.616 4.29781 47.9413 2.88981 46.592C1.48181 45.184 0.777813 43.424 0.777813 41.312C0.777813 39.1413 1.45248 37.3813 2.80181 36.032C4.20981 34.6827 5.94048 34.008 7.99381 34.008C10.0471 34.008 11.7485 34.6827 13.0978 36.032C14.5058 37.3813 15.2098 39.1413 15.2098 41.312C15.2098 43.424 14.5058 45.184 13.0978 46.592C11.6898 47.9413 9.98848 48.616 7.99381 48.616Z" fill="#F8AD29"/>
</svg>
