<svg width="141" height="50" viewBox="0 0 141 50" fill="none" xmlns="http://www.w3.org/2000/svg">
<g clip-path="url(#clip0_314_4219)">
<path d="M53.6816 15.3405H58.0952C58.6607 15.3331 59.1233 15.799 59.1307 16.3686C59.1307 16.6422 59.0205 16.9159 58.8296 17.1082C58.6313 17.3005 58.3669 17.4041 58.0952 17.4041H53.6816V15.3405ZM53.6816 22.6925V20.6289H58.8516C59.1233 20.6289 59.3877 20.7325 59.586 20.9248C59.9826 21.3316 59.9826 21.9825 59.586 22.3967C59.3877 22.589 59.1233 22.6925 58.8516 22.6925H53.6816ZM58.8516 25.91C59.9679 25.9248 61.0474 25.481 61.8258 24.6674C62.663 23.8242 63.0816 22.8257 63.0816 21.657C63.0816 20.4366 62.6263 19.4011 61.7083 18.5579C62.1123 17.8996 62.3252 17.1452 62.3252 16.376C62.3473 15.2443 61.8993 14.157 61.0915 13.3656C60.2543 12.5446 59.2555 12.1304 58.0952 12.1304H52.0807C51.2215 12.1082 50.5018 12.7961 50.4797 13.6615C50.4797 13.6837 50.4797 13.7132 50.4797 13.7354V24.2976C50.4724 24.7192 50.6339 25.126 50.935 25.4218C51.2361 25.7325 51.6474 25.91 52.0807 25.9026L58.8516 25.91Z" fill="#F8AD29"/>
<path d="M68.4856 15.3404V24.2975C68.5076 25.1777 69.2126 25.8878 70.0865 25.9025C70.5198 25.9099 70.931 25.7324 71.2321 25.4218C71.5332 25.1259 71.6948 24.7191 71.6875 24.2975V15.3404H74.5882C75.4695 15.3404 76.1818 14.623 76.1818 13.7354C76.1818 12.8478 75.4695 12.1304 74.5882 12.1304H65.5848C64.7036 12.1304 63.9912 12.8478 63.9912 13.7354C63.9912 14.623 64.7036 15.3404 65.5848 15.3404H68.4856Z" fill="#F8AD29"/>
<path d="M83.0505 25.9098C85.2756 25.9098 87.0749 25.0296 88.4481 23.2693C88.7125 22.9438 88.83 22.5148 88.7639 22.1006C88.7272 21.6717 88.5142 21.2796 88.1691 21.0208C87.8386 20.7471 87.4053 20.6361 86.9794 20.7027C86.5608 20.7397 86.1716 20.9542 85.9292 21.3018C85.1949 22.2338 84.2402 22.6998 83.0505 22.6998C81.0383 22.7072 79.4006 21.0799 79.3933 19.0533C79.3859 18.0696 79.7752 17.1228 80.4655 16.435C81.1411 15.7323 82.0738 15.3403 83.0505 15.3551C84.2402 15.3551 85.2022 15.8211 85.9292 16.753C86.1789 17.1006 86.5608 17.3151 86.9794 17.3521C87.4053 17.4187 87.8313 17.3003 88.1691 17.0341C88.5069 16.7752 88.7272 16.3832 88.7639 15.9542C88.83 15.5326 88.7125 15.111 88.4481 14.7856C87.0749 13.0252 85.2756 12.145 83.0505 12.145C81.1631 12.145 79.5475 12.8181 78.2036 14.1643C76.8597 15.5104 76.1914 17.1376 76.1914 19.0311C76.1914 20.932 76.8597 22.5518 78.2036 23.898C79.5402 25.2367 81.1558 25.9098 83.0505 25.9098Z" fill="#F8AD29"/>
<path d="M93.8735 15.3404H97.5307C98.5147 15.3404 99.3079 16.1392 99.3079 17.1303C99.3079 18.1215 98.5147 18.9203 97.5307 18.9203H93.8735V15.3404ZM92.2726 25.9099C92.7058 25.9173 93.1171 25.7398 93.4182 25.4291C93.7193 25.1333 93.8808 24.7265 93.8735 24.3049V22.1451H97.5307C98.904 22.1451 100.072 21.657 101.048 20.6732C102.025 19.6969 102.51 18.5135 102.51 17.1377C102.51 15.762 102.025 14.5786 101.048 13.6022C100.072 12.6259 98.8966 12.1303 97.5307 12.1377H92.2726C91.4133 12.1155 90.6937 12.8034 90.6716 13.6688C90.6716 13.691 90.6716 13.7206 90.6716 13.7428V24.3049C90.6643 24.7265 90.8259 25.1333 91.1269 25.4291C91.428 25.7398 91.8466 25.9099 92.2726 25.9099Z" fill="#F8AD29"/>
<path d="M113.546 25.9099C113.965 25.9173 114.369 25.7546 114.662 25.4513C115.294 24.83 115.301 23.8167 114.684 23.1806C114.677 23.1732 114.67 23.1658 114.662 23.1584C114.369 22.8552 113.965 22.6925 113.546 22.6999H107.627V13.7354C107.649 12.8478 106.944 12.1081 106.063 12.086C105.182 12.0638 104.447 12.7738 104.425 13.6614C104.425 13.6836 104.425 13.7058 104.425 13.728V24.2901C104.403 25.1555 105.086 25.8803 105.945 25.8951C105.975 25.8951 105.997 25.8951 106.026 25.8951H113.546V25.9099Z" fill="#F8AD29"/>
<path d="M134.479 25.9101C135.338 25.9322 136.058 25.2444 136.08 24.379C136.08 24.3568 136.08 24.3272 136.08 24.305V21.0432L140.677 14.6823C140.934 14.342 141.037 13.9056 140.949 13.4914C140.882 13.0698 140.655 12.6852 140.31 12.4337C139.972 12.1823 139.539 12.0787 139.12 12.1601C138.701 12.2266 138.319 12.4559 138.07 12.8036L134.479 17.7888L130.91 12.811C130.66 12.4633 130.278 12.234 129.859 12.1675C129 12.0195 128.185 12.5965 128.038 13.4618C128.038 13.4766 128.031 13.484 128.031 13.4988C127.95 13.9204 128.046 14.3494 128.303 14.6897L132.878 21.0506V24.3124C132.878 24.7414 133.047 25.1556 133.362 25.4589C133.656 25.7473 134.06 25.9175 134.479 25.9101Z" fill="#F8AD29"/>
<path d="M53.6816 15.3405H58.0952C58.6607 15.3331 59.1233 15.799 59.1307 16.3686C59.1307 16.6422 59.0205 16.9159 58.8296 17.1082C58.6313 17.3005 58.3669 17.4041 58.0952 17.4041H53.6816V15.3405ZM53.6816 22.6925V20.6289H58.8516C59.1233 20.6289 59.3877 20.7325 59.586 20.9248C59.9826 21.3316 59.9826 21.9825 59.586 22.3967C59.3877 22.589 59.1233 22.6925 58.8516 22.6925H53.6816ZM58.8516 25.91C59.9679 25.9248 61.0474 25.481 61.8258 24.6674C62.663 23.8242 63.0816 22.8257 63.0816 21.657C63.0816 20.4366 62.6263 19.4011 61.7083 18.5579C62.1123 17.8996 62.3252 17.1452 62.3252 16.376C62.3473 15.2443 61.8993 14.157 61.0915 13.3656C60.2543 12.5446 59.2555 12.1304 58.0952 12.1304H52.0807C51.2215 12.1082 50.5018 12.7961 50.4797 13.6615C50.4797 13.6837 50.4797 13.7132 50.4797 13.7354V24.2976C50.4724 24.7192 50.6339 25.126 50.935 25.4218C51.2361 25.7325 51.6474 25.91 52.0807 25.9026L58.8516 25.91Z" fill="#E47D22"/>
<path d="M68.4856 15.3404V24.2975C68.5076 25.1777 69.2126 25.8878 70.0865 25.9025C70.5198 25.9099 70.931 25.7324 71.2321 25.4218C71.5332 25.1259 71.6948 24.7191 71.6875 24.2975V15.3404H74.5882C75.4695 15.3404 76.1818 14.623 76.1818 13.7354C76.1818 12.8478 75.4695 12.1304 74.5882 12.1304H65.5848C64.7036 12.1304 63.9912 12.8478 63.9912 13.7354C63.9912 14.623 64.7036 15.3404 65.5848 15.3404H68.4856Z" fill="#E47D22"/>
<path d="M83.0505 25.9098C85.2756 25.9098 87.0749 25.0296 88.4481 23.2693C88.7125 22.9438 88.83 22.5148 88.7639 22.1006C88.7272 21.6717 88.5142 21.2796 88.1691 21.0208C87.8386 20.7471 87.4053 20.6361 86.9794 20.7027C86.5608 20.7397 86.1716 20.9542 85.9292 21.3018C85.1949 22.2338 84.2402 22.6998 83.0505 22.6998C81.0383 22.7072 79.4006 21.0799 79.3933 19.0533C79.3859 18.0696 79.7752 17.1228 80.4655 16.435C81.1411 15.7323 82.0738 15.3403 83.0505 15.3551C84.2402 15.3551 85.2022 15.8211 85.9292 16.753C86.1789 17.1006 86.5608 17.3151 86.9794 17.3521C87.4053 17.4187 87.8313 17.3003 88.1691 17.0341C88.5069 16.7752 88.7272 16.3832 88.7639 15.9542C88.83 15.5326 88.7125 15.111 88.4481 14.7856C87.0749 13.0252 85.2756 12.145 83.0505 12.145C81.1631 12.145 79.5475 12.8181 78.2036 14.1643C76.8597 15.5104 76.1914 17.1376 76.1914 19.0311C76.1914 20.932 76.8597 22.5518 78.2036 23.898C79.5402 25.2367 81.1558 25.9098 83.0505 25.9098Z" fill="#E47D22"/>
<path d="M129.439 23.5651L124.181 13.003C123.909 12.4704 123.431 12.1968 122.763 12.1968C122.08 12.1968 121.596 12.4631 121.324 13.003L116.066 23.5651C115.867 23.9497 115.838 24.3935 115.978 24.8077C116.205 25.4438 116.785 25.8802 117.454 25.9098H128.058C128.293 25.9024 128.528 25.8432 128.734 25.7249C129.115 25.54 129.402 25.2071 129.534 24.8077C129.666 24.3935 129.637 23.9497 129.439 23.5651ZM121.39 20.0444L122.763 17.3151L124.114 20.0444L125.311 22.4409H120.2L121.39 20.0444Z" fill="#F8AD29"/>
<path d="M72.3134 35.333L69.4934 29.66C69.3466 29.3715 69.0895 29.231 68.7297 29.231C68.3625 29.231 68.1055 29.3715 67.9586 29.66L65.1386 35.333C65.0358 35.5401 65.0138 35.7768 65.0872 35.9987C65.1606 36.2132 65.3148 36.3907 65.5131 36.4943C65.6233 36.5534 65.7481 36.5904 65.873 36.5904H71.5644C71.6892 36.5904 71.8141 36.5534 71.9316 36.4943C72.1372 36.3981 72.2914 36.2206 72.3575 35.9987C72.4383 35.7842 72.4236 35.5401 72.3134 35.333ZM67.9953 33.4469L68.7297 31.9824L69.4567 33.4469L70.0956 34.7339H67.3564L67.9953 33.4469Z" fill="#F8AD29"/>
<path d="M52.176 32.4038H54.761C55.5027 32.4112 56.1049 31.8121 56.1122 31.0651C56.1122 31.0577 56.1122 31.0503 56.1122 31.0503C56.1195 30.6878 55.9727 30.3402 55.7156 30.0887C55.4586 29.8372 55.1135 29.6893 54.7536 29.6893H52.1686L52.176 32.4038ZM50.4575 28.8165C50.4575 28.5799 50.5456 28.358 50.7146 28.1952C50.8761 28.0325 51.0891 27.9438 51.3167 27.9512H54.761C56.4574 27.9216 57.8453 29.2899 57.8747 30.9911C57.9041 32.6997 56.5528 34.105 54.8564 34.1272C54.827 34.1272 54.7903 34.1272 54.761 34.1272H52.176V35.7322C52.1833 35.9615 52.0952 36.176 51.9336 36.3387C51.7721 36.5088 51.5517 36.5976 51.3167 36.5976C50.8467 36.5902 50.4649 36.2056 50.4575 35.7322V28.8165Z" fill="#F8AD29"/>
<path d="M63.6758 36.5978C63.9034 36.6052 64.1237 36.5164 64.2779 36.3537C64.6158 36.0208 64.6231 35.4735 64.2926 35.1333C64.2853 35.1259 64.2853 35.1259 64.2779 35.1185C64.1164 34.9558 63.9034 34.867 63.6758 34.8744H60.4886V30.0519C60.4886 29.5711 60.0993 29.1865 59.6293 29.1865C59.1593 29.1865 58.7701 29.5785 58.7701 30.0519V35.7324C58.7628 36.1984 59.13 36.583 59.5926 36.5978C59.6073 36.5978 59.622 36.5978 59.6367 36.5978H63.6758Z" fill="#F8AD29"/>
<path d="M75.0289 36.598C75.4916 36.6128 75.8808 36.243 75.8881 35.777C75.8881 35.7622 75.8881 35.7474 75.8881 35.7326V33.9797L78.363 30.5551C78.5025 30.3702 78.5539 30.1409 78.5098 29.9116C78.4731 29.6823 78.3483 29.4752 78.1647 29.3421C77.9811 29.2016 77.7461 29.1498 77.5258 29.1942C77.2981 29.2311 77.0925 29.3569 76.9603 29.5418L75.0289 32.2193L73.1122 29.5418C72.98 29.3569 72.7744 29.2311 72.5468 29.1942C72.0841 29.1128 71.6435 29.4235 71.5627 29.8894C71.5627 29.8968 71.5627 29.9042 71.5627 29.9116C71.5186 30.1335 71.5701 30.3702 71.7096 30.5551L74.1697 33.9797V35.7326C74.1697 35.9693 74.2578 36.1912 74.4267 36.3539C74.5883 36.5167 74.8013 36.6054 75.0289 36.598Z" fill="#F8AD29"/>
<path d="M86.6487 36.5976C87.1114 36.6124 87.5006 36.2426 87.5079 35.7766C87.5079 35.7618 87.5079 35.747 87.5079 35.7322V33.9793L89.9828 30.5547C90.1223 30.3698 90.1737 30.1405 90.1296 29.9112C90.0929 29.6819 89.9681 29.4748 89.7845 29.3417C89.6009 29.2086 89.3659 29.1494 89.1456 29.1938C88.9179 29.2308 88.7123 29.3565 88.5801 29.5414L86.6487 32.2189L84.732 29.5414C84.5998 29.3565 84.3942 29.2308 84.1665 29.1938C83.6965 29.1198 83.2559 29.4452 83.1824 29.9186C83.1457 30.1405 83.1971 30.3698 83.3293 30.5547L85.7895 33.9793V35.7322C85.7895 35.9689 85.8776 36.1908 86.0465 36.3535C86.2007 36.5162 86.421 36.605 86.6487 36.5976Z" fill="#F8AD29"/>
<path d="M93.8814 30.9171C94.9683 30.9171 95.8495 31.8047 95.8495 32.8993C95.8495 33.994 94.9683 34.8816 93.8814 34.8816C92.7945 34.8816 91.9133 33.994 91.9133 32.8993C91.9133 32.3742 92.1189 31.8638 92.4934 31.494C92.8533 31.1168 93.3527 30.9097 93.8814 30.9171ZM93.8814 36.5976C95.923 36.5976 97.5753 34.9334 97.5753 32.8772C97.5753 30.8209 95.923 29.1567 93.8814 29.1567C91.8398 29.1567 90.1875 30.8209 90.1875 32.8772C90.1875 33.8609 90.5767 34.8076 91.267 35.5103C91.95 36.2203 92.8973 36.6124 93.8814 36.5976Z" fill="#F8AD29"/>
<path d="M101.842 36.5977C103.649 36.6051 105.118 35.1332 105.125 33.3137C105.125 33.3063 105.125 33.3063 105.125 33.2989V30.0519C105.132 29.5859 104.765 29.2013 104.302 29.1865C104.288 29.1865 104.273 29.1865 104.258 29.1865C104.031 29.1791 103.818 29.2678 103.656 29.4305C103.487 29.5933 103.399 29.8152 103.399 30.0519V33.2989C103.406 33.7131 103.238 34.1125 102.944 34.4084C102.65 34.7042 102.253 34.8744 101.835 34.867C100.976 34.8744 100.278 34.1791 100.271 33.3137C100.271 33.3063 100.271 33.2989 100.271 33.2989V30.0519C100.278 29.5859 99.9108 29.1939 99.4482 29.1865C99.4335 29.1865 99.4188 29.1865 99.4115 29.1865C99.1838 29.1791 98.9708 29.2678 98.8093 29.4305C98.6404 29.5933 98.5522 29.8152 98.5522 30.0519V33.2989C98.5522 35.1184 100.014 36.5977 101.82 36.5977C101.828 36.5977 101.835 36.5977 101.842 36.5977Z" fill="#F8AD29"/>
<path d="M108.195 30.9172H110.362C110.619 30.9098 110.861 31.0134 111.037 31.1983C111.412 31.5681 111.412 32.1672 111.052 32.5445C111.045 32.5519 111.045 32.5519 111.037 32.5593C110.861 32.7442 110.619 32.8477 110.362 32.8403H108.195V30.9172ZM107.336 36.5977C107.571 36.5977 107.792 36.509 107.953 36.3389C108.115 36.1835 108.203 35.9616 108.195 35.7323V34.5711H109.98L111.544 36.3167C111.867 36.6717 112.411 36.6939 112.763 36.3758C112.94 36.2279 113.042 36.0134 113.042 35.7841C113.064 35.5548 112.984 35.3255 112.822 35.1554L111.875 34.0903C112.653 33.5578 113.042 32.8181 113.042 31.8788C113.035 30.3921 111.838 29.1865 110.362 29.1865H107.336C106.874 29.1717 106.484 29.5415 106.477 30.0075C106.477 30.0223 106.477 30.0371 106.477 30.0519V35.7323C106.47 35.9616 106.558 36.1761 106.719 36.3389C106.881 36.509 107.109 36.6051 107.336 36.5977Z" fill="#F8AD29"/>
<path d="M127.862 29.2755C127.656 29.172 127.421 29.1572 127.208 29.2385C126.988 29.3051 126.804 29.4604 126.701 29.6749L124.645 33.8021L124.094 32.6927L125.211 30.4442C125.416 30.0152 125.233 29.4974 124.807 29.2903C124.388 29.0906 123.881 29.2607 123.676 29.6749L123.132 30.7622L122.589 29.6749C122.486 29.4678 122.302 29.3051 122.082 29.2385C121.869 29.1572 121.634 29.172 121.429 29.2755C121.223 29.3791 121.061 29.5566 120.995 29.7859C120.922 30.0004 120.936 30.2371 121.032 30.4442L122.148 32.6927L121.605 33.8021L119.541 29.6749C119.336 29.2459 118.821 29.061 118.396 29.2681C117.97 29.4752 117.786 29.993 117.992 30.422C117.992 30.4294 117.999 30.4368 117.999 30.4442L120.826 36.1246C120.959 36.4353 121.267 36.6202 121.597 36.6054C121.928 36.6202 122.229 36.4279 122.361 36.1246L123.11 34.6305L123.845 36.1246C124.058 36.5536 124.579 36.7311 125.012 36.5166C125.181 36.4353 125.313 36.2947 125.401 36.1246L128.229 30.4442C128.332 30.2444 128.346 30.0004 128.266 29.7859C128.221 29.5566 128.067 29.3717 127.862 29.2755Z" fill="#F8AD29"/>
<path d="M137.504 36.598C137.967 36.6128 138.356 36.243 138.363 35.777C138.363 35.7622 138.363 35.7474 138.363 35.7326V33.9797L140.838 30.5551C140.978 30.3702 141.029 30.1409 140.985 29.9116C140.948 29.6823 140.824 29.4752 140.64 29.3421C140.456 29.2016 140.221 29.1498 140.001 29.1942C139.773 29.2311 139.568 29.3569 139.436 29.5418L137.504 32.2193L135.587 29.5418C135.455 29.3569 135.25 29.2311 135.022 29.1942C134.552 29.1202 134.111 29.4456 134.038 29.919C134.001 30.1409 134.053 30.3702 134.185 30.5551L136.645 33.9797V35.7326C136.645 35.9619 136.733 36.1912 136.902 36.3539C137.056 36.5167 137.277 36.6054 137.504 36.598Z" fill="#F8AD29"/>
<path d="M134.785 35.3257L131.965 29.6526C131.818 29.3642 131.561 29.2236 131.201 29.2236C130.834 29.2236 130.577 29.3642 130.43 29.6526L127.61 35.3257C127.507 35.5328 127.485 35.7695 127.559 35.9914C127.632 36.2059 127.787 36.3834 127.985 36.4869C128.095 36.5461 128.227 36.5831 128.352 36.5831H134.043C134.168 36.5831 134.3 36.5461 134.411 36.4869C134.616 36.3908 134.77 36.2133 134.837 35.9914C134.917 35.7695 134.895 35.5328 134.785 35.3257ZM130.467 33.4396L131.201 31.9751L131.928 33.4396L132.567 34.7266H129.821L130.467 33.4396Z" fill="#F8AD29"/>
<path d="M43.2994 20.6362C43.3581 18.3951 42.2639 16.2871 40.3912 15.0815L18.9695 1.09482C16.0026 -0.850445 12.037 0.00014675 10.1203 2.98092C9.60621 3.77973 9.2684 4.6895 9.14355 5.64364L16.0687 10.1333V9.71169C16.0687 9.06819 16.5901 8.54305 17.229 8.54305C17.4493 8.54305 17.677 8.60961 17.8679 8.72796L34.2078 19.4084C34.7512 19.7561 34.8981 20.4809 34.5456 21.0283C34.4501 21.1836 34.3106 21.3093 34.149 21.3981L33.8039 21.6052L33.7819 21.6126L27.0403 25.5623L18.0515 30.8212L17.8165 30.9543L16.0614 31.975V40.0741L33.6056 29.83L40.3545 25.8803C42.1537 24.7413 43.2479 22.7738 43.2994 20.6362Z" fill="url(#paint0_linear_314_4219)"/>
<path d="M43.2994 20.6362C43.3581 18.3951 42.2639 16.2871 40.3912 15.0815L18.9695 1.09482C16.0026 -0.850445 12.037 0.00014675 10.1203 2.98092C9.60621 3.77973 9.2684 4.6895 9.14355 5.64364L16.0687 10.1333V9.71169C16.0687 9.06819 16.5901 8.54305 17.229 8.54305C17.4493 8.54305 17.677 8.60961 17.8679 8.72796L34.2078 19.4084C34.7512 19.7561 34.8981 20.4809 34.5456 21.0283C34.4501 21.1836 34.3106 21.3093 34.149 21.3981L33.8039 21.6052L33.7819 21.6126L27.0403 25.5623L18.0515 30.8212L17.8165 30.9543L16.0614 31.975V40.0741L33.6056 29.83L40.3545 25.8803C42.1537 24.7413 43.2479 22.7738 43.2994 20.6362Z" fill="url(#paint1_linear_314_4219)"/>
<path d="M43.2994 20.6362C43.3581 18.3951 42.2639 16.2871 40.3912 15.0815L18.9695 1.09482C16.0026 -0.850445 12.037 0.00014675 10.1203 2.98092C9.60621 3.77973 9.2684 4.6895 9.14355 5.64364L16.0687 10.1333V9.71169C16.0687 9.06819 16.5901 8.54305 17.229 8.54305C17.4493 8.54305 17.677 8.60961 17.8679 8.72796L34.2078 19.4084C34.7512 19.7561 34.8981 20.4809 34.5456 21.0283C34.4501 21.1836 34.3106 21.3093 34.149 21.3981L33.8039 21.6052L33.7819 21.6126L27.0403 25.5623L18.0515 30.8212L17.8165 30.9543L16.0614 31.975V40.0741L33.6056 29.83L40.3545 25.8803C42.1537 24.7413 43.2479 22.7738 43.2994 20.6362Z" fill="url(#paint2_linear_314_4219)"/>
<path d="M43.2994 20.6362C43.3581 18.3951 42.2639 16.2871 40.3912 15.0815L18.9695 1.09482C16.0026 -0.850445 12.037 0.00014675 10.1203 2.98092C9.60621 3.77973 9.2684 4.6895 9.14355 5.64364L16.0687 10.1333V9.71169C16.0687 9.06819 16.5901 8.54305 17.229 8.54305C17.4493 8.54305 17.677 8.60961 17.8679 8.72796L34.2078 19.4084C34.7512 19.7561 34.8981 20.4809 34.5456 21.0283C34.4501 21.1836 34.3106 21.3093 34.149 21.3981L33.8039 21.6052L33.7819 21.6126L27.0403 25.5623L18.0515 30.8212L17.8165 30.9543L16.0614 31.975V40.0741L33.6056 29.83L40.3545 25.8803C42.1537 24.7413 43.2479 22.7738 43.2994 20.6362Z" fill="url(#paint3_linear_314_4219)"/>
<path d="M8.72437 36.2873C8.17359 36.6053 7.45391 36.4204 7.13812 35.8657C7.02797 35.6882 6.98391 35.4884 6.98391 35.274V14.6748C6.98391 14.0314 7.50531 13.5062 8.14422 13.5062C8.36453 13.5062 8.59219 13.5728 8.77578 13.6911L9.09891 13.8982L9.15031 13.9278L16.0755 18.4322L20.9958 21.6349L25.4534 24.5417L27.0544 25.5772L33.7959 21.6275L16.0681 10.126L9.14297 5.64378C5.95578 4.11271 2.13703 5.47366 0.616875 8.69111C0.212969 9.5491 0 10.4958 0 11.45V38.3213C0 40.6512 1.20438 42.737 3.20922 43.8982C5.05984 44.9707 7.22625 44.66 9.12828 43.7503L9.13562 36.0432L8.72437 36.2873Z" fill="url(#paint4_linear_314_4219)"/>
<path d="M8.72434 36.2873C8.17355 36.6053 7.45387 36.4204 7.13809 35.8657C7.02793 35.6882 6.98387 35.4885 6.98387 35.274V14.6748C6.98387 14.0314 7.50527 13.5062 8.14418 13.5062C8.36449 13.5062 8.59215 13.5728 8.77574 13.6911L9.09887 13.8982L9.15027 13.9278L16.0754 18.4322L20.9957 21.6349L25.4534 24.5417L27.0543 25.5772L33.7959 21.6275L16.0681 10.126L9.15027 5.64378C5.96309 4.11271 2.15168 5.47366 0.631523 8.69111C0.227617 9.5565 0.0146484 10.4958 0.0146484 11.45V38.3213C0.0146484 40.6512 1.21902 42.737 3.22387 43.8982C5.07449 44.9707 7.2409 44.6453 9.13559 43.7503L9.14293 36.0432L8.72434 36.2873Z" fill="url(#paint5_linear_314_4219)"/>
<path d="M33.8338 29.978C34.3772 30.3256 34.5314 31.0505 34.1789 31.5978C34.0835 31.7532 33.9439 31.8789 33.7897 31.9677L17.8244 41.4203C17.2736 41.7532 16.5539 41.5682 16.2382 41.0135C16.128 40.8286 16.0766 40.6215 16.0766 40.4218V18.4322L9.15145 13.9277L9.1441 36.0579L9.12207 44.157C9.3277 46.2206 10.488 48.0327 12.3093 49.0904C14.2921 50.2517 16.7522 50.2369 18.7277 49.0534L39.7528 36.5904C41.5814 35.5106 43.1604 33.8316 43.2558 31.8715C43.4394 28.1289 41.016 26.4055 40.3477 25.8878L33.5988 29.8375L33.8338 29.978Z" fill="url(#paint6_linear_314_4219)"/>
<path d="M33.8338 29.978C34.3772 30.3256 34.5314 31.0505 34.1789 31.5978C34.0835 31.7532 33.9439 31.8789 33.7897 31.9677L17.8244 41.4203C17.2736 41.7532 16.5539 41.5682 16.2382 41.0135C16.128 40.8286 16.0766 40.6215 16.0766 40.4218V18.4322L9.15145 13.9277L9.1441 36.0579L9.12207 44.157C9.3277 46.2206 10.488 48.0327 12.3093 49.0904C14.2921 50.2517 16.7522 50.2369 18.7277 49.0534L39.7528 36.5904C41.5814 35.5106 43.1604 33.8316 43.2558 31.8715C43.4394 28.1289 41.016 26.4055 40.3477 25.8878L33.5988 29.8375L33.8338 29.978Z" fill="url(#paint7_linear_314_4219)"/>
<path opacity="0.7" d="M33.8338 29.978C34.3772 30.3256 34.5314 31.0505 34.1789 31.5978C34.0835 31.7532 33.9439 31.8789 33.7897 31.9677L17.8244 41.4203C17.2736 41.7532 16.5539 41.5682 16.2382 41.0135C16.128 40.8286 16.0766 40.6215 16.0766 40.4218V18.4322L9.15145 13.9277L9.1441 36.0579L9.12207 44.157C9.3277 46.2206 10.488 48.0327 12.3093 49.0904C14.2921 50.2517 16.7522 50.2369 18.7277 49.0534L39.7528 36.5904C41.5814 35.5106 43.1604 33.8316 43.2558 31.8715C43.4394 28.1289 41.016 26.4055 40.3477 25.8878L33.5988 29.8375L33.8338 29.978Z" fill="url(#paint8_linear_314_4219)"/>
<path d="M43.2994 20.6362C43.3581 18.3951 42.2639 16.2871 40.3912 15.0815L18.9695 1.09482C16.0026 -0.850445 12.037 0.00014675 10.1203 2.98092C9.60621 3.77973 9.2684 4.6895 9.14355 5.64364L16.0687 10.1333V9.71169C16.0687 9.06819 16.5901 8.54305 17.229 8.54305C17.4493 8.54305 17.677 8.60961 17.8679 8.72796L34.2078 19.4084C34.7512 19.7561 34.8981 20.4809 34.5456 21.0283C34.4501 21.1836 34.3106 21.3093 34.149 21.3981L33.8039 21.6052L33.7819 21.6126L27.0403 25.5623L18.0515 30.8212L17.8165 30.9543L16.0614 31.975V40.0741L33.6056 29.83L40.3545 25.8803C42.1537 24.7413 43.2479 22.7738 43.2994 20.6362Z" fill="url(#paint9_linear_314_4219)"/>
<path d="M43.2994 20.6362C43.3581 18.3951 42.2639 16.2871 40.3912 15.0815L18.9695 1.09482C16.0026 -0.850445 12.037 0.00014675 10.1203 2.98092C9.60621 3.77973 9.2684 4.6895 9.14355 5.64364L16.0687 10.1333V9.71169C16.0687 9.06819 16.5901 8.54305 17.229 8.54305C17.4493 8.54305 17.677 8.60961 17.8679 8.72796L34.2078 19.4084C34.7512 19.7561 34.8981 20.4809 34.5456 21.0283C34.4501 21.1836 34.3106 21.3093 34.149 21.3981L33.8039 21.6052L33.7819 21.6126L27.0403 25.5623L18.0515 30.8212L17.8165 30.9543L16.0614 31.975V40.0741L33.6056 29.83L40.3545 25.8803C42.1537 24.7413 43.2479 22.7738 43.2994 20.6362Z" fill="url(#paint10_linear_314_4219)"/>
<path d="M43.2994 20.6362C43.3581 18.3951 42.2639 16.2871 40.3912 15.0815L18.9695 1.09482C16.0026 -0.850445 12.037 0.00014675 10.1203 2.98092C9.60621 3.77973 9.2684 4.6895 9.14355 5.64364L16.0687 10.1333V9.71169C16.0687 9.06819 16.5901 8.54305 17.229 8.54305C17.4493 8.54305 17.677 8.60961 17.8679 8.72796L34.2078 19.4084C34.7512 19.7561 34.8981 20.4809 34.5456 21.0283C34.4501 21.1836 34.3106 21.3093 34.149 21.3981L33.8039 21.6052L33.7819 21.6126L27.0403 25.5623L18.0515 30.8212L17.8165 30.9543L16.0614 31.975V40.0741L33.6056 29.83L40.3545 25.8803C42.1537 24.7413 43.2479 22.7738 43.2994 20.6362Z" fill="url(#paint11_linear_314_4219)"/>
<path d="M43.2994 20.6362C43.3581 18.3951 42.2639 16.2871 40.3912 15.0815L18.9695 1.09482C16.0026 -0.850445 12.037 0.00014675 10.1203 2.98092C9.60621 3.77973 9.2684 4.6895 9.14355 5.64364L16.0687 10.1333V9.71169C16.0687 9.06819 16.5901 8.54305 17.229 8.54305C17.4493 8.54305 17.677 8.60961 17.8679 8.72796L34.2078 19.4084C34.7512 19.7561 34.8981 20.4809 34.5456 21.0283C34.4501 21.1836 34.3106 21.3093 34.149 21.3981L33.8039 21.6052L33.7819 21.6126L27.0403 25.5623L18.0515 30.8212L17.8165 30.9543L16.0614 31.975V40.0741L33.6056 29.83L40.3545 25.8803C42.1537 24.7413 43.2479 22.7738 43.2994 20.6362Z" fill="url(#paint12_linear_314_4219)"/>
<path d="M8.72437 36.2873C8.17359 36.6053 7.45391 36.4204 7.13812 35.8657C7.02797 35.6882 6.98391 35.4884 6.98391 35.274V14.6748C6.98391 14.0314 7.50531 13.5062 8.14422 13.5062C8.36453 13.5062 8.59219 13.5728 8.77578 13.6911L9.09891 13.8982L9.15031 13.9278L16.0755 18.4322L20.9958 21.6349L25.4534 24.5417L27.0544 25.5772L33.7959 21.6275L16.0681 10.126L9.14297 5.64378C5.95578 4.11271 2.13703 5.47366 0.616875 8.69111C0.212969 9.5491 0 10.4958 0 11.45V38.3213C0 40.6512 1.20438 42.737 3.20922 43.8982C5.05984 44.9707 7.22625 44.66 9.12828 43.7503L9.13562 36.0432L8.72437 36.2873Z" fill="url(#paint13_linear_314_4219)"/>
<path d="M8.72434 36.2873C8.17355 36.6053 7.45387 36.4204 7.13809 35.8657C7.02793 35.6882 6.98387 35.4885 6.98387 35.274V14.6748C6.98387 14.0314 7.50527 13.5062 8.14418 13.5062C8.36449 13.5062 8.59215 13.5728 8.77574 13.6911L9.09887 13.8982L9.15027 13.9278L16.0754 18.4322L20.9957 21.6349L25.4534 24.5417L27.0543 25.5772L33.7959 21.6275L16.0681 10.126L9.15027 5.64378C5.96309 4.11271 2.15168 5.47366 0.631523 8.69111C0.227617 9.5565 0.0146484 10.4958 0.0146484 11.45V38.3213C0.0146484 40.6512 1.21902 42.737 3.22387 43.8982C5.07449 44.9707 7.2409 44.6453 9.13559 43.7503L9.14293 36.0432L8.72434 36.2873Z" fill="url(#paint14_linear_314_4219)"/>
<path d="M33.8338 29.978C34.3772 30.3256 34.5314 31.0505 34.1789 31.5978C34.0835 31.7532 33.9439 31.8789 33.7897 31.9677L17.8244 41.4203C17.2736 41.7532 16.5539 41.5682 16.2382 41.0135C16.128 40.8286 16.0766 40.6215 16.0766 40.4218V18.4322L9.15145 13.9277L9.1441 36.0579L9.12207 44.157C9.3277 46.2206 10.488 48.0327 12.3093 49.0904C14.2921 50.2517 16.7522 50.2369 18.7277 49.0534L39.7528 36.5904C41.5814 35.5106 43.1604 33.8316 43.2558 31.8715C43.4394 28.1289 41.016 26.4055 40.3477 25.8878L33.5988 29.8375L33.8338 29.978Z" fill="url(#paint15_linear_314_4219)"/>
<path d="M33.8338 29.978C34.3772 30.3256 34.5314 31.0505 34.1789 31.5978C34.0835 31.7532 33.9439 31.8789 33.7897 31.9677L17.8244 41.4203C17.2736 41.7532 16.5539 41.5682 16.2382 41.0135C16.128 40.8286 16.0766 40.6215 16.0766 40.4218V18.4322L9.15145 13.9277L9.1441 36.0579L9.12207 44.157C9.3277 46.2206 10.488 48.0327 12.3093 49.0904C14.2921 50.2517 16.7522 50.2369 18.7277 49.0534L39.7528 36.5904C41.5814 35.5106 43.1604 33.8316 43.2558 31.8715C43.4394 28.1289 41.016 26.4055 40.3477 25.8878L33.5988 29.8375L33.8338 29.978Z" fill="url(#paint16_linear_314_4219)"/>
<path opacity="0.7" d="M33.8338 29.978C34.3772 30.3256 34.5314 31.0505 34.1789 31.5978C34.0835 31.7532 33.9439 31.8789 33.7897 31.9677L17.8244 41.4203C17.2736 41.7532 16.5539 41.5682 16.2382 41.0135C16.128 40.8286 16.0766 40.6215 16.0766 40.4218V18.4322L9.15145 13.9277L9.1441 36.0579L9.12207 44.157C9.3277 46.2206 10.488 48.0327 12.3093 49.0904C14.2921 50.2517 16.7522 50.2369 18.7277 49.0534L39.7528 36.5904C41.5814 35.5106 43.1604 33.8316 43.2558 31.8715C43.4394 28.1289 41.016 26.4055 40.3477 25.8878L33.5988 29.8375L33.8338 29.978Z" fill="url(#paint17_linear_314_4219)"/>
</g>
<defs>
<linearGradient id="paint0_linear_314_4219" x1="36.6001" y1="31.6975" x2="9.02985" y2="15.8608" gradientUnits="userSpaceOnUse">
<stop stop-color="#FED05E"/>
<stop offset="0.1955" stop-color="#E5A542"/>
<stop offset="0.3953" stop-color="#BF611A"/>
<stop offset="0.6651" stop-color="#68371C"/>
<stop offset="1"/>
</linearGradient>
<linearGradient id="paint1_linear_314_4219" x1="36.6001" y1="31.6975" x2="9.02985" y2="15.8608" gradientUnits="userSpaceOnUse">
<stop stop-color="#FED05E" stop-opacity="0"/>
<stop offset="0.1955" stop-color="#E5A542" stop-opacity="0"/>
<stop offset="0.3953" stop-color="#BF611A" stop-opacity="0"/>
<stop offset="0.6651" stop-color="#68371C" stop-opacity="0"/>
<stop offset="1"/>
</linearGradient>
<linearGradient id="paint2_linear_314_4219" x1="9.1443" y1="20.0631" x2="43.2998" y2="20.0631" gradientUnits="userSpaceOnUse">
<stop stop-opacity="0"/>
<stop offset="0.056967" stop-color="#201203" stop-opacity="0.0507679"/>
<stop offset="0.1967" stop-color="#693A0B" stop-opacity="0.1753"/>
<stop offset="0.322" stop-color="#A45A11" stop-opacity="0.2869"/>
<stop offset="0.4282" stop-color="#CE7115" stop-opacity="0.3816"/>
<stop offset="0.5113" stop-color="#E77F18" stop-opacity="0.4557"/>
<stop offset="0.5611" stop-color="#F18419" stop-opacity="0.5"/>
<stop offset="1" stop-color="#F9B24B" stop-opacity="0"/>
</linearGradient>
<linearGradient id="paint3_linear_314_4219" x1="51.0977" y1="17.7173" x2="13.1372" y2="20.1953" gradientUnits="userSpaceOnUse">
<stop offset="0.1232" stop-color="#FFBE63" stop-opacity="0"/>
<stop offset="0.4926" stop-color="#DE7C24" stop-opacity="0"/>
<stop offset="0.5708" stop-color="#A45C1B" stop-opacity="0.1544"/>
<stop offset="0.6487" stop-color="#724013" stop-opacity="0.3085"/>
<stop offset="0.7249" stop-color="#492A0D" stop-opacity="0.4591"/>
<stop offset="0.799" stop-color="#2A1908" stop-opacity="0.6057"/>
<stop offset="0.8706" stop-color="#130C05" stop-opacity="0.7472"/>
<stop offset="0.9384" stop-color="#060503" stop-opacity="0.8812"/>
<stop offset="0.9985" stop-color="#010202"/>
</linearGradient>
<linearGradient id="paint4_linear_314_4219" x1="18.0163" y1="12.026" x2="8.87363" y2="44.6948" gradientUnits="userSpaceOnUse">
<stop stop-color="#F8AD29"/>
<stop offset="0.2897" stop-color="#B3692B"/>
<stop offset="0.8826"/>
</linearGradient>
<linearGradient id="paint5_linear_314_4219" x1="0.00964734" y1="24.7927" x2="33.7852" y2="24.7927" gradientUnits="userSpaceOnUse">
<stop stop-color="#1D1F1C" stop-opacity="0"/>
<stop offset="0.26" stop-color="#EE740E" stop-opacity="0"/>
<stop offset="0.27" stop-color="#EE7714" stop-opacity="0.03"/>
<stop offset="0.37" stop-color="#F49B49" stop-opacity="0.26"/>
<stop offset="0.47" stop-color="#F6B778" stop-opacity="0.45"/>
<stop offset="0.56" stop-color="#FAD19F" stop-opacity="0.61"/>
<stop offset="0.66" stop-color="#FCE4BC" stop-opacity="0.74"/>
<stop offset="0.75" stop-color="#FDF0D2" stop-opacity="0.83"/>
<stop offset="0.83" stop-color="#FEF9E1" stop-opacity="0.88"/>
<stop offset="0.91" stop-color="#FEFBE5" stop-opacity="0.9"/>
</linearGradient>
<linearGradient id="paint6_linear_314_4219" x1="27.0331" y1="38.8715" x2="9.59464" y2="9.64007" gradientUnits="userSpaceOnUse">
<stop stop-color="#F49822"/>
<stop offset="0.23" stop-color="#B3692B"/>
<stop offset="0.37" stop-color="#7C4D2B"/>
<stop offset="0.6922"/>
</linearGradient>
<linearGradient id="paint7_linear_314_4219" x1="11.3088" y1="31.9455" x2="45.9483" y2="31.824" gradientUnits="userSpaceOnUse">
<stop offset="0.2995" stop-color="#FECE59" stop-opacity="0"/>
<stop offset="0.6872" stop-color="#FECD5D" stop-opacity="0.5535"/>
<stop offset="1" stop-color="#FDCB66"/>
</linearGradient>
<linearGradient id="paint8_linear_314_4219" x1="7.82013" y1="32.0876" x2="42.4595" y2="30.9938" gradientUnits="userSpaceOnUse">
<stop offset="0.2722" stop-color="#EE740E" stop-opacity="0"/>
<stop offset="0.36" stop-color="#F8BA81" stop-opacity="0.37"/>
<stop offset="0.51" stop-color="#FAC99D" stop-opacity="0.56"/>
<stop offset="0.67" stop-color="#FCDAB9" stop-opacity="0.75"/>
<stop offset="0.82" stop-color="#FEE6CF" stop-opacity="0.89"/>
<stop offset="0.93" stop-color="#FEEDDB" stop-opacity="0.97"/>
<stop offset="1" stop-color="#FFF0DE"/>
</linearGradient>
<linearGradient id="paint9_linear_314_4219" x1="36.6001" y1="31.6975" x2="9.02985" y2="15.8608" gradientUnits="userSpaceOnUse">
<stop stop-color="#FED05E"/>
<stop offset="0.1955" stop-color="#E5A542"/>
<stop offset="0.3953" stop-color="#BF611A"/>
<stop offset="0.6651" stop-color="#68371C"/>
<stop offset="1"/>
</linearGradient>
<linearGradient id="paint10_linear_314_4219" x1="36.6001" y1="31.6975" x2="9.02985" y2="15.8608" gradientUnits="userSpaceOnUse">
<stop stop-color="#FED05E" stop-opacity="0"/>
<stop offset="0.1955" stop-color="#E5A542" stop-opacity="0"/>
<stop offset="0.3953" stop-color="#BF611A" stop-opacity="0"/>
<stop offset="0.6651" stop-color="#68371C" stop-opacity="0"/>
<stop offset="1"/>
</linearGradient>
<linearGradient id="paint11_linear_314_4219" x1="9.1443" y1="20.0631" x2="43.2998" y2="20.0631" gradientUnits="userSpaceOnUse">
<stop stop-opacity="0"/>
<stop offset="0.056967" stop-color="#201203" stop-opacity="0.0507679"/>
<stop offset="0.1967" stop-color="#693A0B" stop-opacity="0.1753"/>
<stop offset="0.322" stop-color="#A45A11" stop-opacity="0.2869"/>
<stop offset="0.4282" stop-color="#CE7115" stop-opacity="0.3816"/>
<stop offset="0.5113" stop-color="#E77F18" stop-opacity="0.4557"/>
<stop offset="0.5611" stop-color="#F18419" stop-opacity="0.5"/>
<stop offset="1" stop-color="#F9B24B" stop-opacity="0"/>
</linearGradient>
<linearGradient id="paint12_linear_314_4219" x1="51.0977" y1="17.7173" x2="13.1372" y2="20.1953" gradientUnits="userSpaceOnUse">
<stop offset="0.1232" stop-color="#FFBE63" stop-opacity="0"/>
<stop offset="0.4926" stop-color="#DE7C24" stop-opacity="0"/>
<stop offset="0.5708" stop-color="#A45C1B" stop-opacity="0.1544"/>
<stop offset="0.6487" stop-color="#724013" stop-opacity="0.3085"/>
<stop offset="0.7249" stop-color="#492A0D" stop-opacity="0.4591"/>
<stop offset="0.799" stop-color="#2A1908" stop-opacity="0.6057"/>
<stop offset="0.8706" stop-color="#130C05" stop-opacity="0.7472"/>
<stop offset="0.9384" stop-color="#060503" stop-opacity="0.8812"/>
<stop offset="0.9985" stop-color="#010202"/>
</linearGradient>
<linearGradient id="paint13_linear_314_4219" x1="18.0163" y1="12.026" x2="8.87363" y2="44.6948" gradientUnits="userSpaceOnUse">
<stop stop-color="#F8AD29"/>
<stop offset="0.2897" stop-color="#B3692B"/>
<stop offset="0.8826"/>
</linearGradient>
<linearGradient id="paint14_linear_314_4219" x1="0.00964734" y1="24.7927" x2="33.7852" y2="24.7927" gradientUnits="userSpaceOnUse">
<stop stop-color="#1D1F1C" stop-opacity="0"/>
<stop offset="0.26" stop-color="#EE740E" stop-opacity="0"/>
<stop offset="0.27" stop-color="#EE7714" stop-opacity="0.03"/>
<stop offset="0.37" stop-color="#F49B49" stop-opacity="0.26"/>
<stop offset="0.47" stop-color="#F6B778" stop-opacity="0.45"/>
<stop offset="0.56" stop-color="#FAD19F" stop-opacity="0.61"/>
<stop offset="0.66" stop-color="#FCE4BC" stop-opacity="0.74"/>
<stop offset="0.75" stop-color="#FDF0D2" stop-opacity="0.83"/>
<stop offset="0.83" stop-color="#FEF9E1" stop-opacity="0.88"/>
<stop offset="0.91" stop-color="#FEFBE5" stop-opacity="0.9"/>
</linearGradient>
<linearGradient id="paint15_linear_314_4219" x1="27.0331" y1="38.8715" x2="9.59464" y2="9.64007" gradientUnits="userSpaceOnUse">
<stop stop-color="#F49822"/>
<stop offset="0.23" stop-color="#B3692B"/>
<stop offset="0.37" stop-color="#7C4D2B"/>
<stop offset="0.6922"/>
</linearGradient>
<linearGradient id="paint16_linear_314_4219" x1="11.3088" y1="31.9455" x2="45.9483" y2="31.824" gradientUnits="userSpaceOnUse">
<stop offset="0.2995" stop-color="#FECE59" stop-opacity="0"/>
<stop offset="0.6872" stop-color="#FECD5D" stop-opacity="0.5535"/>
<stop offset="1" stop-color="#FDCB66"/>
</linearGradient>
<linearGradient id="paint17_linear_314_4219" x1="7.82013" y1="32.0876" x2="42.4595" y2="30.9938" gradientUnits="userSpaceOnUse">
<stop offset="0.2722" stop-color="#EE740E" stop-opacity="0"/>
<stop offset="0.36" stop-color="#F8BA81" stop-opacity="0.37"/>
<stop offset="0.51" stop-color="#FAC99D" stop-opacity="0.56"/>
<stop offset="0.67" stop-color="#FCDAB9" stop-opacity="0.75"/>
<stop offset="0.82" stop-color="#FEE6CF" stop-opacity="0.89"/>
<stop offset="0.93" stop-color="#FEEDDB" stop-opacity="0.97"/>
<stop offset="1" stop-color="#FFF0DE"/>
</linearGradient>
<clipPath id="clip0_314_4219">
<rect width="141" height="50" fill="white"/>
</clipPath>
</defs>
</svg>
