<svg width="24" height="24" viewBox="0 0 24 24" fill="none" xmlns="http://www.w3.org/2000/svg">
<path fill-rule="evenodd" clip-rule="evenodd" d="M6.24111 2H17.7872C18.0529 2 18.2683 2.21579 18.2683 2.48195V2.96386H22.5971C22.8628 2.96386 23.0782 3.17965 23.0782 3.44581V7.78326C23.0745 10.9757 20.492 13.5628 17.3051 13.5665C17.2864 13.5665 17.268 13.5655 17.2499 13.5634C16.2765 15.065 14.6867 16.1281 12.839 16.3939V19.8945H14.4818C15.6446 19.8945 16.5873 20.8371 16.5873 22H7.43765C7.43765 20.8371 8.38032 19.8945 9.54316 19.8945H11.1838V16.3931C9.33827 16.126 7.75063 15.0633 6.7782 13.5631C6.75922 13.5654 6.7399 13.5665 6.72031 13.5665C3.5335 13.5628 0.950964 10.9757 0.947266 7.78326V3.44581C0.947266 3.17965 1.16267 2.96386 1.42837 2.96386H5.76001V2.48195C5.76001 2.21579 5.97542 2 6.24111 2ZM5.76001 3.92777H1.90943V7.78326C1.91244 10.2871 3.81896 12.3441 6.25731 12.5801C5.9471 11.845 5.7711 11.039 5.76001 10.193V3.92777ZM17.7711 12.5798C20.2081 12.3424 22.113 10.2861 22.116 7.78326V3.92777H18.2683V10.1929C18.2572 11.0388 18.0813 11.8447 17.7711 12.5798ZM12.2375 5.56995C12.1342 5.40295 11.8917 5.40295 11.7884 5.56995L10.8916 7.01949C10.8552 7.07837 10.7972 7.1206 10.73 7.13711L9.07676 7.54353C8.8863 7.59035 8.81136 7.82141 8.93797 7.97144L10.037 9.27373C10.0817 9.32663 10.1038 9.39496 10.0988 9.46404L9.97371 11.1648C9.95931 11.3607 10.1555 11.5035 10.3371 11.4292L11.9131 10.7845C11.9771 10.7584 12.0488 10.7584 12.1128 10.7845L13.6888 11.4292C13.8704 11.5035 14.0666 11.3607 14.0522 11.1648L13.9271 9.46404C13.922 9.39496 13.9442 9.32663 13.9888 9.27373L15.0879 7.97144C15.2145 7.82141 15.1396 7.59035 14.9491 7.54353L13.2958 7.13711C13.2287 7.1206 13.1707 7.07837 13.1342 7.01949L12.2375 5.56995Z" fill="url(#paint0_linear_346_17407)"/>
<defs>
<linearGradient id="paint0_linear_346_17407" x1="12.0127" y1="2" x2="12.0127" y2="22" gradientUnits="userSpaceOnUse">
<stop stop-color="#F8AD29"/>
<stop offset="1" stop-color="#E47D22"/>
</linearGradient>
</defs>
</svg>
