<svg width="30" height="30" viewBox="0 0 30 30" fill="none" xmlns="http://www.w3.org/2000/svg">
<rect width="30" height="30" rx="15" fill="#6C5ECF"/>
<path d="M19.3579 10.0204L8.18718 13.3414C7.78038 13.4623 7.69973 14.0031 8.05355 14.2375L11.8474 16.7506C12.0456 16.8819 12.3089 16.8554 12.4771 16.6873L15.2286 13.9357C15.4239 13.7404 15.7405 13.7404 15.9358 13.9357L16.0643 14.0642C16.2596 14.2595 16.2596 14.5761 16.0643 14.7714L13.3127 17.5229C13.1446 17.6911 13.1181 17.9544 13.2494 18.1526L15.7625 21.9465C15.9969 22.3003 16.5377 22.2196 16.6586 21.8128L19.9796 10.6421C20.0928 10.2615 19.7385 9.90722 19.3579 10.0204Z" fill="white"/>
</svg>
