<svg width="9" height="8" viewBox="0 0 9 8" fill="none" xmlns="http://www.w3.org/2000/svg">
<path d="M3.8625 1.02868C4.15577 0.555453 4.84423 0.555453 5.1375 1.02868L5.8437 2.16819C5.9471 2.33505 6.11181 2.45472 6.30246 2.5015L7.60442 2.821C8.14511 2.95368 8.35786 3.60845 7.99842 4.03361L7.13291 5.05736C7.00617 5.20727 6.94326 5.40089 6.95767 5.59667L7.05614 6.93364C7.09704 7.48887 6.54006 7.89354 6.02464 7.68307L4.78353 7.17628C4.60179 7.10207 4.39821 7.10207 4.21647 7.17628L2.97536 7.68307C2.45994 7.89354 1.90296 7.48887 1.94386 6.93364L2.04233 5.59667C2.05674 5.40089 1.99383 5.20727 1.86709 5.05736L1.00158 4.0336C0.642139 3.60845 0.854886 2.95368 1.39558 2.821L2.69754 2.5015C2.88819 2.45472 3.0529 2.33505 3.1563 2.16819L3.8625 1.02868Z" fill="#4D4D4D"/>
</svg>
