<svg width="20" height="18" viewBox="0 0 20 18" fill="none" xmlns="http://www.w3.org/2000/svg">
<path d="M10.4728 6.88559C10.3929 6.42425 10.311 5.9949 10.2395 5.60477C9.85765 5.74754 9.44384 5.88827 9.01042 6.03417C6.38306 6.92718 2.74957 8.18023 1.60953 10.1383C0.887988 11.3776 0.734315 12.7816 1.08324 14.0633C1.41978 15.3379 2.2393 16.4954 3.47859 17.2169C4.71788 17.9385 6.12186 18.0921 7.40362 17.7432C8.67816 17.4067 9.84288 16.5748 10.5572 15.3479C11.6972 13.3898 10.986 9.62371 10.4728 6.88559Z" fill="#4D4D4D"/>
<path d="M18.7495 4.28573C18.7025 4.01434 18.6543 3.76177 18.6122 3.53228C18.3876 3.61626 18.1442 3.69904 17.8892 3.78487C16.3437 4.31019 14.2063 5.04731 13.5356 6.19916C13.1112 6.92818 13.0208 7.75408 13.226 8.50808C13.424 9.25784 13.9061 9.93875 14.6351 10.3632C15.3641 10.7877 16.19 10.8781 16.944 10.6728C17.6938 10.4748 18.3789 9.98544 18.7991 9.26371C19.4698 8.11186 19.0514 5.89645 18.7495 4.28573Z" fill="#4D4D4D"/>
<path d="M7.51944 1.53155C7.48796 1.34971 7.45568 1.18048 7.42748 1.0267C7.27698 1.08298 7.11387 1.13845 6.94304 1.19596C5.90743 1.54794 4.47525 2.04185 4.02589 2.81365C3.74148 3.30213 3.68091 3.85553 3.81844 4.36075C3.95109 4.86312 4.27412 5.31937 4.7626 5.60377C5.25108 5.88818 5.80448 5.94875 6.3097 5.81121C6.81207 5.67857 7.27116 5.35065 7.55272 4.86706C8.00208 4.09526 7.72174 2.61082 7.51944 1.53155Z" fill="#4D4D4D"/>
</svg>
