<svg width="34" height="34" viewBox="0 0 34 34" fill="none" xmlns="http://www.w3.org/2000/svg">
<path d="M24.9618 15.2289C24.3527 15.2289 23.871 14.7331 23.871 14.1381C23.871 13.6139 23.3468 12.5231 22.4685 11.5739C21.6043 10.6531 20.6552 10.1148 19.8618 10.1148C19.2527 10.1148 18.771 9.61894 18.771 9.02394C18.771 8.42894 19.2668 7.93311 19.8618 7.93311C21.2785 7.93311 22.766 8.69811 24.0693 10.0723C25.2877 11.3614 26.0668 12.9623 26.0668 14.1239C26.0668 14.7331 25.571 15.2289 24.9618 15.2289Z" fill="url(#paint0_linear_340_31020)"/>
<path d="M30.076 15.2293C29.4668 15.2293 28.9852 14.7335 28.9852 14.1385C28.9852 9.10933 24.891 5.02933 19.876 5.02933C19.2668 5.02933 18.7852 4.5335 18.7852 3.9385C18.7852 3.3435 19.2668 2.8335 19.8618 2.8335C26.0952 2.8335 31.1668 7.90516 31.1668 14.1385C31.1668 14.7335 30.671 15.2293 30.076 15.2293Z" fill="url(#paint1_linear_340_31020)"/>
<path d="M15.6543 21.1793L13.0335 23.8002C12.481 24.3527 11.6027 24.3527 11.036 23.8143C10.8802 23.6585 10.7243 23.5168 10.5685 23.361C9.10933 21.8877 7.79183 20.3435 6.616 18.7285C5.45433 17.1135 4.51933 15.4985 3.83933 13.8977C3.1735 12.2827 2.8335 10.7385 2.8335 9.26516C2.8335 8.30183 3.0035 7.381 3.3435 6.531C3.6835 5.66683 4.22183 4.8735 4.97266 4.16516C5.87933 3.27266 6.871 2.8335 7.91933 2.8335C8.316 2.8335 8.71266 2.9185 9.06683 3.0885C9.43516 3.2585 9.761 3.5135 10.016 3.88183L13.3027 8.51433C13.5577 8.8685 13.7418 9.19433 13.8693 9.506C13.9968 9.8035 14.0677 10.101 14.0677 10.3702C14.0677 10.7102 13.9685 11.0502 13.7702 11.376C13.586 11.7018 13.3168 12.0418 12.9768 12.3818L11.9002 13.501C11.7443 13.6568 11.6735 13.841 11.6735 14.0677C11.6735 14.181 11.6877 14.2802 11.716 14.3935C11.7585 14.5068 11.801 14.5918 11.8293 14.6768C12.0843 15.1443 12.5235 15.7535 13.1468 16.4902C13.7843 17.2268 14.4643 17.9777 15.201 18.7285C15.3427 18.8702 15.4985 19.0118 15.6402 19.1535C16.2068 19.706 16.221 20.6127 15.6543 21.1793Z" fill="url(#paint2_linear_340_31020)"/>
<path d="M31.1243 25.9676C31.1243 26.3643 31.0534 26.7751 30.9118 27.1718C30.8693 27.2851 30.8268 27.3985 30.7701 27.5118C30.5293 28.0218 30.2176 28.5035 29.8068 28.9568C29.1126 29.7218 28.3476 30.2743 27.4834 30.6285C27.4693 30.6285 27.4551 30.6426 27.4409 30.6426C26.6051 30.9826 25.6984 31.1668 24.7209 31.1668C23.2759 31.1668 21.7318 30.8268 20.1026 30.1326C18.4734 29.4385 16.8443 28.5035 15.2293 27.3276C14.6768 26.9168 14.1243 26.506 13.6001 26.0668L18.2326 21.4343C18.6293 21.7318 18.9834 21.9585 19.2809 22.1143C19.3518 22.1426 19.4368 22.1851 19.5359 22.2276C19.6493 22.2701 19.7626 22.2843 19.8901 22.2843C20.1309 22.2843 20.3151 22.1993 20.4709 22.0435L21.5476 20.981C21.9018 20.6268 22.2418 20.3576 22.5676 20.1876C22.8934 19.9893 23.2193 19.8901 23.5734 19.8901C23.8426 19.8901 24.1259 19.9468 24.4376 20.0743C24.7493 20.2018 25.0751 20.386 25.4293 20.6268L30.1184 23.956C30.4868 24.211 30.7418 24.5085 30.8976 24.8626C31.0393 25.2168 31.1243 25.571 31.1243 25.9676Z" fill="url(#paint3_linear_340_31020)"/>
<defs>
<linearGradient id="paint0_linear_340_31020" x1="22.4189" y1="7.93311" x2="22.4189" y2="15.2289" gradientUnits="userSpaceOnUse">
<stop stop-color="#F8AD29"/>
<stop offset="1" stop-color="#E47D22"/>
</linearGradient>
<linearGradient id="paint1_linear_340_31020" x1="24.976" y1="2.8335" x2="24.976" y2="15.2293" gradientUnits="userSpaceOnUse">
<stop stop-color="#F8AD29"/>
<stop offset="1" stop-color="#E47D22"/>
</linearGradient>
<linearGradient id="paint2_linear_340_31020" x1="9.4529" y1="2.8335" x2="9.4529" y2="24.2163" gradientUnits="userSpaceOnUse">
<stop stop-color="#F8AD29"/>
<stop offset="1" stop-color="#E47D22"/>
</linearGradient>
<linearGradient id="paint3_linear_340_31020" x1="22.3622" y1="19.8901" x2="22.3622" y2="31.1668" gradientUnits="userSpaceOnUse">
<stop stop-color="#F8AD29"/>
<stop offset="1" stop-color="#E47D22"/>
</linearGradient>
</defs>
</svg>
