<svg width="34" height="34" viewBox="0 0 34 34" fill="none" xmlns="http://www.w3.org/2000/svg">
<path d="M5.96375 5.97813C10.1571 1.79896 16.9571 1.79896 21.1221 5.97813C24.0546 8.88229 24.9329 13.0615 23.7996 16.7448L30.4579 23.4031C30.9254 23.8848 31.2513 24.834 31.1521 25.514L30.7271 28.6023C30.5713 29.6223 29.6221 30.5856 28.6021 30.7273L25.5138 31.1523C24.8338 31.2515 23.8846 30.9398 23.4029 30.444L22.2413 29.2823C21.9579 29.0131 21.9579 28.5598 22.2413 28.2765L24.9896 25.5281C25.4004 25.1173 25.4004 24.4373 24.9896 24.0265C24.5788 23.6156 23.8988 23.6156 23.4879 24.0265L20.7254 26.789C20.4563 27.0581 20.0029 27.0581 19.7338 26.789L16.7304 23.7998C13.0613 24.9473 8.88209 24.0548 5.96375 21.1506C1.78459 16.9715 1.78459 10.1573 5.96375 5.97813ZM13.4579 16.9998C15.4129 16.9998 16.9996 15.4131 16.9996 13.4581C16.9996 11.5031 15.4129 9.91646 13.4579 9.91646C11.5029 9.91646 9.91626 11.5031 9.91626 13.4581C9.91626 15.4131 11.5029 16.9998 13.4579 16.9998Z" fill="url(#paint0_linear_340_30663)"/>
<defs>
<linearGradient id="paint0_linear_340_30663" x1="16.9997" y1="2.84375" x2="16.9997" y2="31.1707" gradientUnits="userSpaceOnUse">
<stop stop-color="#F8AD29"/>
<stop offset="1" stop-color="#E47D22"/>
</linearGradient>
</defs>
</svg>
