<svg width="18" height="18" viewBox="0 0 18 18" fill="none" xmlns="http://www.w3.org/2000/svg">
<g clip-path="url(#clip0_66_4500)">
<path fill-rule="evenodd" clip-rule="evenodd" d="M5.35303 0.876953L14.0861 1.31479L18 8.95382L9.26733 8.51634L5.35303 0.876953ZM11.3685 4.96155C11.3685 5.31845 11.6578 5.60814 12.0151 5.60814C12.3721 5.60814 12.6617 5.31849 12.6617 4.96155C12.6617 4.60425 12.372 4.31495 12.0151 4.31495C11.6578 4.31495 11.3685 4.60425 11.3685 4.96155ZM4.47848 1.6015L0 8.53259L3.80232 15.9529L8.28081 9.0214L4.47848 1.6015ZM2.23312 8.99001C1.87583 8.99001 1.58653 8.70071 1.58653 8.34342C1.58653 7.98651 1.87583 7.69682 2.23312 7.69682C2.59007 7.69682 2.87972 7.98647 2.87972 8.34342C2.87972 8.70071 2.59007 8.99001 2.23312 8.99001ZM3.79976 12.077C3.44246 12.077 3.15316 11.7873 3.15316 11.4304C3.15316 11.0731 3.44246 10.7838 3.79976 10.7838C4.15666 10.7838 4.44635 11.0731 4.44635 11.4304C4.44635 11.7873 4.15666 12.077 3.79976 12.077ZM4.01256 6.26691C3.65565 6.26691 3.36596 5.97761 3.36596 5.62032C3.36596 5.26341 3.65565 4.97372 4.01256 4.97372C4.36985 4.97372 4.65915 5.26341 4.65915 5.62032C4.65915 5.97761 4.36985 6.26691 4.01256 6.26691ZM5.73398 9.48881C5.37669 9.48881 5.08739 9.19951 5.08739 8.84221C5.08739 8.48492 5.37669 8.19562 5.73398 8.19562C6.09089 8.19562 6.38058 8.48492 6.38058 8.84221C6.38058 9.19947 6.09089 9.48881 5.73398 9.48881ZM9.21202 9.62329L4.646 16.6892L13.294 17.1226L17.8597 10.0563L9.21202 9.62329ZM8.7424 15.5509C8.3855 15.5509 8.09581 15.2616 8.09581 14.9043C8.09584 14.5473 8.3855 14.2577 8.7424 14.2577C9.0997 14.2577 9.389 14.5473 9.389 14.9043C9.389 15.2616 9.0997 15.5509 8.7424 15.5509ZM13.9233 12.7236C13.566 12.7236 13.2767 12.4339 13.2767 12.077C13.2767 11.7197 13.566 11.4304 13.9233 11.4304C14.2802 11.4304 14.5699 11.7197 14.5699 12.077C14.5699 12.4339 14.2802 12.7236 13.9233 12.7236Z" fill="url(#paint0_linear_66_4500)"/>
</g>
<defs>
<linearGradient id="paint0_linear_66_4500" x1="9" y1="0.876953" x2="9" y2="17.1226" gradientUnits="userSpaceOnUse">
<stop stop-color="#F8AD29"/>
<stop offset="1" stop-color="#E47D22"/>
</linearGradient>
<clipPath id="clip0_66_4500">
<rect width="18" height="18" fill="white"/>
</clipPath>
</defs>
</svg>
