<svg width="14" height="14" viewBox="0 0 14 14" fill="none" xmlns="http://www.w3.org/2000/svg">
<g clip-path="url(#clip0_66_4404)">
<path d="M12.7695 3.85547H11.6592L11.1062 2.38079C10.651 1.16668 9.4905 0.355469 8.18368 0.355469H5.81632C4.5197 0.355469 3.35264 1.15711 2.89376 2.38079L2.34076 3.85547H1.23047C0.551988 3.85547 0 4.40746 0 5.08594V12.4141C0 13.0925 0.551988 13.6445 1.23047 13.6445H12.7695C13.448 13.6445 14 13.0925 14 12.4141V5.08594C14 4.40746 13.448 3.85547 12.7695 3.85547ZM9.67969 6.60547H11.7277C12.0234 6.60547 12.2222 6.9098 12.1032 7.18067L10.4666 10.9035C10.3753 11.1114 10.1329 11.2048 9.92611 11.1139C9.71873 11.0227 9.62454 10.7807 9.7157 10.5733L11.0994 7.42578H9.67969C9.45317 7.42578 9.26953 7.24214 9.26953 7.01562C9.26953 6.78911 9.45317 6.60547 9.67969 6.60547ZM8.34173 2.47543C8.36618 2.23956 8.58326 2.06691 8.83009 2.1134C9.05409 2.16007 9.19439 2.37035 9.1522 2.59574C9.10591 2.81668 8.89787 2.96051 8.66983 2.91785C8.45184 2.87232 8.32117 2.67362 8.34173 2.47543ZM6.59173 2.47543C6.61618 2.23964 6.8332 2.06689 7.08009 2.1134C7.30259 2.15975 7.44456 2.36947 7.4022 2.59574C7.35552 2.8184 7.14621 2.96018 6.91983 2.91785C6.70225 2.87243 6.57111 2.67411 6.59173 2.47543ZM5.96094 6.60547H8.00896C8.30462 6.60547 8.5035 6.9098 8.38441 7.18067L6.74789 10.9035C6.65651 11.1114 6.41416 11.2048 6.20736 11.1139C5.99998 11.0227 5.90579 10.7807 5.99695 10.5733L7.38063 7.42578H5.96094C5.73442 7.42578 5.55078 7.24214 5.55078 7.01562C5.55078 6.78911 5.73442 6.60547 5.96094 6.60547ZM4.84173 2.47516C4.86705 2.23584 5.08668 2.06754 5.33009 2.1134C5.56073 2.16144 5.69617 2.3826 5.65195 2.59574C5.61233 2.8052 5.40594 2.96201 5.16986 2.91785C4.95141 2.87224 4.82152 2.67389 4.84173 2.47516ZM2.24219 6.60547H4.29021C4.58588 6.60547 4.78475 6.9098 4.66566 7.18067L3.02914 10.9035C2.93776 11.1114 2.69541 11.2048 2.48861 11.1139C2.28123 11.0227 2.18704 10.7807 2.2782 10.5733L3.66188 7.42578H2.24219C2.01567 7.42578 1.83203 7.24214 1.83203 7.01562C1.83203 6.78911 2.01567 6.60547 2.24219 6.60547Z" fill="url(#paint0_linear_66_4404)"/>
</g>
<defs>
<linearGradient id="paint0_linear_66_4404" x1="7" y1="0.355469" x2="7" y2="13.6445" gradientUnits="userSpaceOnUse">
<stop stop-color="#F8AD29"/>
<stop offset="1" stop-color="#E47D22"/>
</linearGradient>
<clipPath id="clip0_66_4404">
<rect width="14" height="14" fill="white"/>
</clipPath>
</defs>
</svg>
